<?xml version="1.0" encoding="utf-8"?>
<!-- Generator: Adobe Illustrator 27.5.0, SVG Export Plug-In . SVG Version: 6.00 Build 0)  -->
<svg version="1.1" id="Layer_1" xmlns="http://www.w3.org/2000/svg" xmlns:xlink="http://www.w3.org/1999/xlink" x="0px" y="0px"
	 viewBox="0 0 1200 900" style="enable-background:new 0 0 1200 900;" xml:space="preserve">
<style type="text/css">
	.st0{fill:#D3E5F1;}
	.st1{fill:#4B8AB7;}
	.st2{fill:#B7D2E5;}
	.st3{fill:#9ABFDB;}
	.st4{fill:#5A95BD;}
	.st5{fill:#507087;}
	.st6{fill:#6F8EAA;}
	.st7{fill:#FFFFFF;}
	.st8{fill:#FEEDED;}
	.st9{fill:#F2B263;}
	.st10{fill:#FFE989;}
	.st11{fill:#D9DBEE;}
	.st12{fill:#A8B9D5;}
	.st13{fill:#995C7D;}
	.st14{fill:#7A3D5F;}
	.st15{fill:#4EB3AF;}
	.st16{fill:#F27792;}
	.st17{fill:#D74C6B;}
	.st18{fill:#403E55;}
	.st19{fill:#78DBBE;}
	.st20{fill:#FB947B;}
	.st21{fill:#E46758;}
	.st22{fill:#191B2A;}
	.st23{fill:#4994F0;}
	.st24{fill:#002539;}
	.st25{fill:#E27E6A;}
	.st26{fill:#302E46;}
	.st27{fill:#FCFEFF;}
	.st28{fill:#F6977A;}
</style>
<g>
	<path class="st0" d="M1119.5,492.1c-6.6-87.5-56.2-164.7-111.3-230.1c-26.1-31-53.5-61-82-89.8c-31.7-32.1-65-61.4-105.1-82.6
		c-40-21.2-87-29.4-131.7-21c-48.9,9.2-91.9,33.5-133.7,59.4c-84,52-167.2,105.3-250.8,158c-36.7,23.2-74.4,45.3-109.3,71.2
		c-18,13.3-34.5,28-50,44.1c-15.5,16-27.9,33.6-38.8,53c-23.6,42.2-29.8,92-26.2,139.6c3.6,47.9,19.3,94.7,38.1,138.5
		c5.4,12.5,40,78,48.8,81.6c6.8,2.8,807.8,20.2,828,9.5c22-11.6,40.7-28.2,53.7-49.5c11.7-19,20.2-39,27.4-60
		c7.6-22,15-44,21.5-66.3C1113.1,596.8,1123.6,545.3,1119.5,492.1z M810,461.5c0,3.8-3.1,6.8-6.8,6.8H532.9c-3.8,0-6.8-3.1-6.8-6.8
		V300.7c0-3.8,3.1-6.8,6.8-6.8h270.3c3.8,0,6.8,3.1,6.8,6.8V461.5z"/>
	<ellipse class="st1" cx="597.1" cy="816.1" rx="515.8" ry="44.5"/>
</g>
<g>
	<path class="st2" d="M890.5,690.5H918c3.1,0,5.6,2.5,5.6,5.6v27.5c0,3.1-2.5,5.6-5.6,5.6h-27.5c-3.1,0-5.6-2.5-5.6-5.6v-27.5
		C884.9,693,887.4,690.5,890.5,690.5z"/>
	<g>
		<circle class="st3" cx="904.2" cy="709.9" r="10.4"/>
		<g>
			<path class="st2" d="M898.5,709.9c0-0.7,0.6-1.2,1.2-1.2s1.2,0.6,1.2,1.2s-0.6,1.2-1.2,1.2S898.5,710.5,898.5,709.9z"/>
			<circle class="st2" cx="908.7" cy="709.9" r="1.2"/>
		</g>
	</g>
</g>
<g>
	<path class="st2" d="M840.5,690.5H868c3.1,0,5.6,2.5,5.6,5.6v27.5c0,3.1-2.5,5.6-5.6,5.6h-27.5c-3.1,0-5.6-2.5-5.6-5.6v-27.5
		C834.9,693,837.4,690.5,840.5,690.5z"/>
	<g>
		<circle class="st4" cx="854.3" cy="709.9" r="10.4"/>
		<g>
			<path class="st4" d="M850.1,711.1c0.5-0.1,1-0.6,1-1.2c0-0.7-0.6-1.2-1.2-1.2c-0.4,0-0.7,0.2-1,0.5c0,0,0,0,0-0.1
				c-1-1.5-3.2,0.2-2.2,1.7c10.3,15,1,36.8-14.8,43.5c-19.1,8.1-41.8-2-52.8-18.5c-3.1-4.6-5.3-9.8-6.2-15.3c-1-6,0-11.9,0.2-17.9
				c0.2-5.5-0.6-10.7-3.4-15.5c-2.7-4.6-6.3-8.5-8.4-13.5c-4.3-10.5-1.8-22.3-0.1-33c1.8-10.8,2.5-21.6,1.8-32.5
				c-1.6-24.3-9.8-48-23.5-68.1c-1-1.5-3.2,0.2-2.2,1.7c13.2,19.4,21.1,42.2,22.9,65.5c0.9,11.8-0.1,23.3-2,35
				c-1.8,11.1-3.8,23.3,1.2,33.9c2.4,5,6.4,9,8.8,14c2.9,6,2.2,12.5,1.7,18.9c-0.4,5.6-0.2,11.1,1.4,16.6c1.5,5.2,4.1,10,7.4,14.3
				c12,15.8,34.6,24.8,53.7,17.1C849.5,750.2,859.4,727.6,850.1,711.1L850.1,711.1z"/>
			<path class="st4" d="M857.5,709.9c0-0.7,0.6-1.2,1.2-1.2s1.2,0.6,1.2,1.2s-0.6,1.2-1.2,1.2S857.5,710.5,857.5,709.9z"/>
		</g>
	</g>
</g>
<g>
	<g>
		<g>
			<path class="st5" d="M205.8,763.4L205.8,763.4c-2.9,0-5.2-2.3-5.2-5.2v-72.9c0-2.9,2.4-5.2,5.2-5.2l0,0c2.9,0,5.2,2.3,5.2,5.2
				v72.9C211.1,761,208.7,763.4,205.8,763.4z"/>
			<path class="st6" d="M203.6,763.4L203.6,763.4c-2.9,0-5.2-2.3-5.2-5.2v-72.9c0-2.9,2.4-5.2,5.2-5.2l0,0c2.9,0,5.2,2.3,5.2,5.2
				v72.9C208.8,761,206.5,763.4,203.6,763.4z"/>
		</g>
		<g>
			<path class="st5" d="M223.5,763.4L223.5,763.4c-2.9,0-5.2-2.3-5.2-5.2v-72.9c0-2.9,2.4-5.2,5.2-5.2l0,0c2.9,0,5.2,2.3,5.2,5.2
				v72.9C228.7,761,226.3,763.4,223.5,763.4z"/>
			<path class="st6" d="M221.2,680L221.2,680c2.9,0,5.2,2.3,5.2,5.2v72.9c0,2.9-2.3,5.2-5.2,5.2h0c-2.9,0-5.2-2.3-5.2-5.2v-72.9
				C216,682.4,218.3,680,221.2,680z"/>
		</g>
		<g>
			<path class="st5" d="M241.1,763.4L241.1,763.4c-2.9,0-5.2-2.3-5.2-5.2v-72.9c0-2.9,2.4-5.2,5.2-5.2l0,0c2.9,0,5.2,2.3,5.2,5.2
				v72.9C246.3,761,244,763.4,241.1,763.4z"/>
			<path class="st6" d="M238.8,763.4L238.8,763.4c-2.9,0-5.2-2.3-5.2-5.2v-72.9c0-2.9,2.4-5.2,5.2-5.2l0,0c2.9,0,5.2,2.3,5.2,5.2
				v72.9C244.1,761,241.7,763.4,238.8,763.4z"/>
		</g>
		<g>
			<path class="st6" d="M258.7,763.4L258.7,763.4c-2.9,0-5.2-2.3-5.2-5.2v-72.9c0-2.9,2.4-5.2,5.2-5.2l0,0c2.9,0,5.2,2.3,5.2,5.2
				v72.9C263.9,761,261.6,763.4,258.7,763.4z"/>
			<path class="st6" d="M256.5,763.4L256.5,763.4c-2.9,0-5.2-2.3-5.2-5.2v-72.9c0-2.9,2.4-5.2,5.2-5.2l0,0c2.9,0,5.2,2.3,5.2,5.2
				v72.9C261.7,761,259.3,763.4,256.5,763.4z"/>
		</g>
		<g>
			<path class="st5" d="M310.7,763.4L310.7,763.4c2.9,0,5.2-2.3,5.2-5.2v-72.9c0-2.9-2.4-5.2-5.2-5.2l0,0c-2.9,0-5.2,2.3-5.2,5.2
				v72.9C305.4,761,307.8,763.4,310.7,763.4z"/>
			<path class="st6" d="M312.9,763.4L312.9,763.4c2.9,0,5.2-2.3,5.2-5.2v-72.9c0-2.9-2.4-5.2-5.2-5.2l0,0c-2.9,0-5.2,2.3-5.2,5.2
				v72.9C307.7,761,310,763.4,312.9,763.4z"/>
		</g>
		<g>
			<path class="st5" d="M293,763.4L293,763.4c2.9,0,5.2-2.3,5.2-5.2v-72.9c0-2.9-2.4-5.2-5.2-5.2l0,0c-2.9,0-5.2,2.3-5.2,5.2v72.9
				C287.8,761,290.2,763.4,293,763.4z"/>
			<path class="st6" d="M295.3,763.4L295.3,763.4c2.9,0,5.2-2.3,5.2-5.2v-72.9c0-2.9-2.4-5.2-5.2-5.2l0,0c-2.9,0-5.2,2.3-5.2,5.2
				v72.9C290.1,761,292.4,763.4,295.3,763.4z"/>
		</g>
		<g>
			<path class="st5" d="M274.1,763.4L274.1,763.4c2.9,0,5.2-2.3,5.2-5.2v-72.9c0-2.9-2.4-5.2-5.2-5.2l0,0c-2.9,0-5.2,2.3-5.2,5.2
				v72.9C268.8,761,271.2,763.4,274.1,763.4z"/>
			<path class="st6" d="M276.3,763.4L276.3,763.4c2.9,0,5.2-2.3,5.2-5.2v-72.9c0-2.9-2.4-5.2-5.2-5.2l0,0c-2.9,0-5.2,2.3-5.2,5.2
				v72.9C271.1,761,273.4,763.4,276.3,763.4z"/>
		</g>
		<rect x="198.5" y="753.5" class="st6" width="119.7" height="34"/>
		<rect x="198.5" y="657.6" class="st6" width="119.7" height="33.4"/>
		<ellipse class="st6" cx="258.4" cy="787.7" rx="59.9" ry="9.8"/>
		<ellipse class="st6" cx="258.4" cy="657.9" rx="59.9" ry="9.8"/>
		<ellipse class="st5" cx="258.4" cy="657" rx="56.4" ry="6.4"/>
	</g>
	<path class="st5" d="M318.2,691v-33.4h0c-0.9-4.2-17.5-7.6-40.3-8.9c0,11.1-0.2,22.2-0.7,33.4c-1.5,38.7-5.5,77.3-11.9,115.5
		c29.8-0.6,52.9-4.7,52.9-9.8c0-0.1,0-0.2,0-0.3h0v-34h-0.1L318.2,691L318.2,691L318.2,691z M287.8,753.5h-6.3V691h6.3V753.5z
		 M305.4,753.5h-4.9V691h4.9V753.5z"/>
</g>
<g>
	<g>
		<path class="st7" d="M854.3,565.6L854.3,565.6l-1.6,15.5l-0.8,7.9l-0.9,9l-20.3,201.2c-0.2,1.9-1.8,3.4-3.7,3.4h-6.3
			c-2.1,0-3.8-1.8-3.8-3.9l6.3-200.7l0.3-9l0.2-7.9l0.5-15.5v0L854.3,565.6L854.3,565.6z"/>
		<path class="st7" d="M977.7,798.7c0.1,2.1-1.6,3.9-3.7,3.9h-6.3c-1.9,0-3.5-1.5-3.7-3.4l-20.3-201.2l-0.9-9l-0.8-7.9l-1.6-15.5v0
			h30v0l0.5,15.5l0.2,7.9l0.3,9L977.7,798.7L977.7,798.7z"/>
		<polygon class="st8" points="824.3,565.6 854.3,565.6 852.7,581.1 851.9,589 823.6,589 823.8,581.1 		"/>
		<polygon class="st8" points="971.1,589 942.7,589 941.9,581.1 940.4,565.6 970.3,565.6 970.8,581.1 		"/>
	</g>
	<g>
		<path class="st8" d="M268.9,802.5h-6.3c-2.1,0-3.8-1.8-3.8-3.9l7.4-233.1h30l-23.5,233.6C272.4,801.1,270.8,802.5,268.9,802.5
			L268.9,802.5z"/>
		<path class="st8" d="M409.5,802.5h6.3c2.1,0,3.8-1.8,3.8-3.9l-7.4-233.1h-30l23.5,233.6C405.9,801.1,407.5,802.5,409.5,802.5
			L409.5,802.5z"/>
	</g>
	<path class="st9" d="M260.5,567h709.8c4.1,0,7.5-3.4,7.5-7.5v-29.1c0-5.6-4.6-10.2-10.2-10.2H263.3c-5.6,0-10.2,4.6-10.2,10.2v29.1
		C253,563.7,256.4,567,260.5,567L260.5,567z"/>
	<path class="st10" d="M992.8,516.3H238.1c-4.8,0-8.7,4-8.7,8.8v17.6c0,4.8,3.9,8.8,8.7,8.8h754.6c4.8,0,8.7-4,8.7-8.8v-17.6
		C1001.5,520.3,997.5,516.3,992.8,516.3z"/>
	<path class="st9" d="M999.6,516.3H815.2v35.2h184.4c4.1,0,7.3-2.8,7.3-6.4v-22.5C1006.9,519.2,1003.7,516.4,999.6,516.3
		L999.6,516.3z"/>
</g>
<g>
	<rect x="641" y="417.8" class="st3" width="53.9" height="96.2"/>
	<path class="st2" d="M820.7,300.7v160.7c0,3.8-3.1,6.8-6.8,6.8h-10.5c3.7-0.1,6.7-3.1,6.7-6.8V300.7c0-3.8-3.1-6.8-6.8-6.8H536.7v0
		h277.1C817.6,293.9,820.7,296.9,820.7,300.7z"/>
	<path class="st7" d="M609.9,500.8h116.2c3.8,0,6.8,3.1,6.8,6.8v2.6c0,3.8-3.1,6.8-6.8,6.8H609.9c-3.8,0-6.8-3.1-6.8-6.8v-2.6
		C603.1,503.9,606.1,500.8,609.9,500.8z"/>
	<path class="st7" d="M803.3,468.3c-0.1,0-0.1,0-0.2,0H532.9c-3.8,0-6.8-3.1-6.8-6.8V300.7c0-3.8,3.1-6.8,6.8-6.8h3.8v174.4H803.3z"
		/>
	<path class="st6" d="M541.1,302.5h253.8c3.3,0,5.9,2.7,5.9,5.9v127.7c0,3.3-2.7,5.9-5.9,5.9H541.1c-3.3,0-5.9-2.7-5.9-5.9V308.5
		C535.2,305.2,537.8,302.5,541.1,302.5z"/>
	<g>
		<g>
			<path class="st11" d="M552,313.5h147c2.9,0,5.2,2.3,5.2,5.2v107.8c0,2.9-2.3,5.2-5.2,5.2H552c-2.9,0-5.2-2.3-5.2-5.2V318.8
				C546.8,315.9,549.1,313.5,552,313.5z"/>
			<g>
				<path class="st12" d="M704.2,318.8v2.9H546.8v-2.9c0-2.9,2.3-5.2,5.2-5.2h147C701.8,313.5,704.2,315.9,704.2,318.8z"/>
				<g>
					<path class="st11" d="M551.5,317.6c0-0.8,0.6-1.4,1.4-1.4s1.4,0.6,1.4,1.4s-0.6,1.4-1.4,1.4S551.5,318.4,551.5,317.6z"/>
					<path class="st11" d="M556.6,317.6c0-0.8,0.6-1.4,1.4-1.4s1.4,0.6,1.4,1.4s-0.6,1.4-1.4,1.4S556.6,318.4,556.6,317.6z"/>
					<path class="st11" d="M561.8,317.6c0-0.8,0.6-1.4,1.4-1.4s1.4,0.6,1.4,1.4s-0.6,1.4-1.4,1.4S561.8,318.4,561.8,317.6z"/>
				</g>
			</g>
			<g>
				<g>
					<path class="st12" d="M553.7,325h27.8c1.9,0,3.5,1.5,3.5,3.5v91.1c0,1.9-1.5,3.5-3.5,3.5h-27.8c-1.9,0-3.5-1.5-3.5-3.5v-91.1
						C550.3,326.6,551.8,325,553.7,325z"/>
					<g>
						<g>
							<path class="st11" d="M554,327.8h5.2c0.6,0,1,0.5,1,1v5.3c0,0.6-0.5,1-1,1H554c-0.6,0-1-0.5-1-1v-5.3
								C553,328.2,553.4,327.8,554,327.8z"/>
							<path class="st11" d="M554,338.2h5.2c0.6,0,1,0.5,1,1v5.3c0,0.6-0.5,1-1,1H554c-0.6,0-1-0.5-1-1v-5.3
								C553,338.6,553.4,338.2,554,338.2z"/>
							<path class="st11" d="M554,348.6h5.2c0.6,0,1,0.5,1,1v5.3c0,0.6-0.5,1-1,1H554c-0.6,0-1-0.5-1-1v-5.3
								C553,349,553.4,348.6,554,348.6z"/>
							<path class="st11" d="M554,359h5.2c0.6,0,1,0.5,1,1v5.3c0,0.6-0.5,1-1,1H554c-0.6,0-1-0.5-1-1V360
								C553,359.4,553.4,359,554,359z"/>
							<path class="st11" d="M554,369.4h5.2c0.6,0,1,0.5,1,1v5.3c0,0.6-0.5,1-1,1H554c-0.6,0-1-0.5-1-1v-5.3
								C553,369.9,553.4,369.4,554,369.4z"/>
							<path class="st11" d="M554,379.8h5.2c0.6,0,1,0.5,1,1v5.3c0,0.6-0.5,1-1,1H554c-0.6,0-1-0.5-1-1v-5.3
								C553,380.3,553.4,379.8,554,379.8z"/>
							<path class="st11" d="M554,390.2h5.2c0.6,0,1,0.5,1,1v5.3c0,0.6-0.5,1-1,1H554c-0.6,0-1-0.5-1-1v-5.3
								C553,390.7,553.4,390.2,554,390.2z"/>
							<path class="st11" d="M554,400.6h5.2c0.6,0,1,0.5,1,1v5.3c0,0.6-0.5,1-1,1H554c-0.6,0-1-0.5-1-1v-5.3
								C553,401.1,553.4,400.6,554,400.6z"/>
							<path class="st11" d="M554,411h5.2c0.6,0,1,0.5,1,1v5.3c0,0.6-0.5,1-1,1H554c-0.6,0-1-0.5-1-1V412
								C553,411.5,553.4,411,554,411z"/>
						</g>
						<g>
							<path class="st11" d="M576.7,330.4h-12.4c-0.6,0-1.1-0.5-1.1-1.1l0,0c0-0.6,0.5-1.1,1.1-1.1h12.4c0.6,0,1.1,0.5,1.1,1.1l0,0
								C577.8,329.9,577.3,330.4,576.7,330.4z"/>
							<path class="st11" d="M576.7,334.6h-12.4c-0.6,0-1.1-0.5-1.1-1.1l0,0c0-0.6,0.5-1.1,1.1-1.1h12.4c0.6,0,1.1,0.5,1.1,1.1l0,0
								C577.8,334.1,577.3,334.6,576.7,334.6z"/>
						</g>
						<g>
							<path class="st11" d="M576.7,340.8h-12.4c-0.6,0-1.1-0.5-1.1-1.1l0,0c0-0.6,0.5-1.1,1.1-1.1h12.4c0.6,0,1.1,0.5,1.1,1.1l0,0
								C577.8,340.3,577.3,340.8,576.7,340.8z"/>
							<path class="st11" d="M571.3,345h-7c-0.6,0-1.1-0.5-1.1-1.1l0,0c0-0.6,0.5-1.1,1.1-1.1h7c0.6,0,1.1,0.5,1.1,1.1l0,0
								C572.4,344.5,571.9,345,571.3,345z"/>
						</g>
						<g>
							<path class="st11" d="M576.7,351.2h-12.4c-0.6,0-1.1-0.5-1.1-1.1l0,0c0-0.6,0.5-1.1,1.1-1.1h12.4c0.6,0,1.1,0.5,1.1,1.1l0,0
								C577.8,350.7,577.3,351.2,576.7,351.2z"/>
							<path class="st11" d="M576.7,355.4h-12.4c-0.6,0-1.1-0.5-1.1-1.1l0,0c0-0.6,0.5-1.1,1.1-1.1h12.4c0.6,0,1.1,0.5,1.1,1.1l0,0
								C577.8,354.9,577.3,355.4,576.7,355.4z"/>
						</g>
						<g>
							<path class="st11" d="M567.6,361.6h-3.3c-0.6,0-1.1-0.5-1.1-1.1l0,0c0-0.6,0.5-1.1,1.1-1.1h3.3c0.6,0,1.1,0.5,1.1,1.1l0,0
								C568.7,361.1,568.2,361.6,567.6,361.6z"/>
							<path class="st11" d="M574.7,361.6h-3.3c-0.6,0-1.1-0.5-1.1-1.1l0,0c0-0.6,0.5-1.1,1.1-1.1h3.3c0.6,0,1.1,0.5,1.1,1.1l0,0
								C575.8,361.1,575.3,361.6,574.7,361.6z"/>
							<path class="st11" d="M576.7,365.8h-12.4c-0.6,0-1.1-0.5-1.1-1.1l0,0c0-0.6,0.5-1.1,1.1-1.1h12.4c0.6,0,1.1,0.5,1.1,1.1l0,0
								C577.8,365.3,577.3,365.8,576.7,365.8z"/>
						</g>
						<g>
							<path class="st11" d="M567.6,403.2h-3.3c-0.6,0-1.1-0.5-1.1-1.1l0,0c0-0.6,0.5-1.1,1.1-1.1h3.3c0.6,0,1.1,0.5,1.1,1.1l0,0
								C568.7,402.8,568.2,403.2,567.6,403.2z"/>
							<path class="st11" d="M574.7,403.2h-3.3c-0.6,0-1.1-0.5-1.1-1.1l0,0c0-0.6,0.5-1.1,1.1-1.1h3.3c0.6,0,1.1,0.5,1.1,1.1l0,0
								C575.8,402.8,575.3,403.2,574.7,403.2z"/>
							<path class="st11" d="M576.7,407.5h-12.4c-0.6,0-1.1-0.5-1.1-1.1l0,0c0-0.6,0.5-1.1,1.1-1.1h12.4c0.6,0,1.1,0.5,1.1,1.1l0,0
								C577.8,407,577.3,407.5,576.7,407.5z"/>
						</g>
						<g>
							<path class="st11" d="M576.7,372h-12.4c-0.6,0-1.1-0.5-1.1-1.1l0,0c0-0.6,0.5-1.1,1.1-1.1h12.4c0.6,0,1.1,0.5,1.1,1.1l0,0
								C577.8,371.5,577.3,372,576.7,372z"/>
							<path class="st11" d="M564.3,374.1h12.4c0.6,0,1.1,0.5,1.1,1.1v0c0,0.6-0.5,1.1-1.1,1.1h-12.4c-0.6,0-1.1-0.5-1.1-1.1v0
								C563.2,374.6,563.7,374.1,564.3,374.1z"/>
						</g>
						<g>
							<path class="st11" d="M576.7,382.4h-12.4c-0.6,0-1.1-0.5-1.1-1.1l0,0c0-0.6,0.5-1.1,1.1-1.1h12.4c0.6,0,1.1,0.5,1.1,1.1l0,0
								C577.8,381.9,577.3,382.4,576.7,382.4z"/>
							<path class="st11" d="M571.9,386.6h-7.6c-0.6,0-1.1-0.5-1.1-1.1l0,0c0-0.6,0.5-1.1,1.1-1.1h7.6c0.6,0,1.1,0.5,1.1,1.1l0,0
								C572.9,386.2,572.5,386.6,571.9,386.6z"/>
						</g>
						<g>
							<path class="st11" d="M564.3,390.7h12.4c0.6,0,1.1,0.5,1.1,1.1v0c0,0.6-0.5,1.1-1.1,1.1h-12.4c-0.6,0-1.1-0.5-1.1-1.1v0
								C563.2,391.2,563.7,390.7,564.3,390.7z"/>
							<path class="st11" d="M576.7,397h-12.4c-0.6,0-1.1-0.5-1.1-1.1l0,0c0-0.6,0.5-1.1,1.1-1.1h12.4c0.6,0,1.1,0.5,1.1,1.1l0,0
								C577.8,396.6,577.3,397,576.7,397z"/>
						</g>
						<g>
							<path class="st11" d="M576.7,413.6h-12.4c-0.6,0-1.1-0.5-1.1-1.1l0,0c0-0.6,0.5-1.1,1.1-1.1h12.4c0.6,0,1.1,0.5,1.1,1.1l0,0
								C577.8,413.2,577.3,413.6,576.7,413.6z"/>
							<path class="st11" d="M564.3,415.7h12.4c0.6,0,1.1,0.5,1.1,1.1v0c0,0.6-0.5,1.1-1.1,1.1h-12.4c-0.6,0-1.1-0.5-1.1-1.1v0
								C563.2,416.2,563.7,415.7,564.3,415.7z"/>
						</g>
					</g>
				</g>
				<path class="st12" d="M591.5,413.6L591.5,413.6c-0.6,0-1.1-0.5-1.1-1.1v-86.5c0-0.6,0.5-1.1,1.1-1.1l0,0c0.6,0,1.1,0.5,1.1,1.1
					v86.5C592.6,413.2,592.1,413.6,591.5,413.6z"/>
				<g>
					<g>
						<g>
							<path class="st12" d="M649.1,364.4h-18.4c-0.7,0-1.2-0.5-1.2-1.2l0,0c0-0.7,0.5-1.2,1.2-1.2h18.4c0.7,0,1.2,0.5,1.2,1.2l0,0
								C650.3,363.8,649.7,364.4,649.1,364.4z"/>
							<path class="st12" d="M611.1,364.4h-10.9c-0.7,0-1.2-0.5-1.2-1.2l0,0c0-0.7,0.5-1.2,1.2-1.2h10.9c0.7,0,1.2,0.5,1.2,1.2l0,0
								C612.3,363.8,611.8,364.4,611.1,364.4z"/>
							<path class="st12" d="M626.1,364.4h-10.9c-0.7,0-1.2-0.5-1.2-1.2l0,0c0-0.7,0.5-1.2,1.2-1.2h10.9c0.7,0,1.2,0.5,1.2,1.2l0,0
								C627.3,363.8,626.8,364.4,626.1,364.4z"/>
						</g>
						<g>
							<path class="st12" d="M618.7,352.3h-18.4c-0.7,0-1.2-0.5-1.2-1.2l0,0c0-0.7,0.5-1.2,1.2-1.2h18.4c0.7,0,1.2,0.5,1.2,1.2l0,0
								C619.9,351.7,619.3,352.3,618.7,352.3z"/>
							<path class="st12" d="M643.4,352.3h-10.9c-0.7,0-1.2-0.5-1.2-1.2l0,0c0-0.7,0.5-1.2,1.2-1.2h10.9c0.7,0,1.2,0.5,1.2,1.2l0,0
								C644.6,351.7,644.1,352.3,643.4,352.3z"/>
							<path class="st12" d="M658.4,352.3h-10.9c-0.7,0-1.2-0.5-1.2-1.2l0,0c0-0.7,0.5-1.2,1.2-1.2h10.9c0.7,0,1.2,0.5,1.2,1.2l0,0
								C659.6,351.7,659.1,352.3,658.4,352.3z"/>
							<path class="st12" d="M628.2,352.3h-5.6c-0.7,0-1.2-0.5-1.2-1.2l0,0c0-0.7,0.5-1.2,1.2-1.2h5.6c0.7,0,1.2,0.5,1.2,1.2l0,0
								C629.4,351.7,628.8,352.3,628.2,352.3z"/>
						</g>
						<g>
							<path class="st12" d="M621,376.6h-10.9c-0.7,0-1.2-0.5-1.2-1.2l0,0c0-0.7,0.5-1.2,1.2-1.2H621c0.7,0,1.2,0.5,1.2,1.2l0,0
								C622.3,376.1,621.7,376.6,621,376.6z"/>
							<path class="st12" d="M605.8,376.6h-5.6c-0.7,0-1.2-0.5-1.2-1.2l0,0c0-0.7,0.5-1.2,1.2-1.2h5.6c0.7,0,1.2,0.5,1.2,1.2l0,0
								C607,376.1,606.5,376.6,605.8,376.6z"/>
							<path class="st12" d="M631.3,376.6h-5.6c-0.7,0-1.2-0.5-1.2-1.2l0,0c0-0.7,0.5-1.2,1.2-1.2h5.6c0.7,0,1.2,0.5,1.2,1.2l0,0
								C632.5,376.1,631.9,376.6,631.3,376.6z"/>
						</g>
						<g>
							<path class="st12" d="M634.1,388.8h-18.4c-0.7,0-1.2-0.5-1.2-1.2l0,0c0-0.7,0.5-1.2,1.2-1.2h18.4c0.7,0,1.2,0.5,1.2,1.2l0,0
								C635.3,388.3,634.7,388.8,634.1,388.8z"/>
							<path class="st12" d="M611.1,388.8h-10.9c-0.7,0-1.2-0.5-1.2-1.2l0,0c0-0.7,0.5-1.2,1.2-1.2h10.9c0.7,0,1.2,0.5,1.2,1.2l0,0
								C612.3,388.3,611.8,388.8,611.1,388.8z"/>
							<path class="st12" d="M645.1,388.8h-5.6c-0.7,0-1.2-0.5-1.2-1.2l0,0c0-0.7,0.5-1.2,1.2-1.2h5.6c0.7,0,1.2,0.5,1.2,1.2l0,0
								C646.3,388.3,645.7,388.8,645.1,388.8z"/>
						</g>
						<path class="st12" d="M649.1,358.3h-48.8c-0.7,0-1.2-0.5-1.2-1.2l0,0c0-0.7,0.5-1.2,1.2-1.2h48.8c0.7,0,1.2,0.5,1.2,1.2l0,0
							C650.3,357.7,649.8,358.3,649.1,358.3z"/>
						<path class="st12" d="M649.1,382.7h-48.8c-0.7,0-1.2-0.5-1.2-1.2l0,0c0-0.7,0.5-1.2,1.2-1.2h48.8c0.7,0,1.2,0.5,1.2,1.2l0,0
							C650.3,382.2,649.8,382.7,649.1,382.7z"/>
						<g>
							<path class="st12" d="M638.9,370.5h-5.6c-0.7,0-1.2-0.5-1.2-1.2l0,0c0-0.7,0.5-1.2,1.2-1.2h5.6c0.7,0,1.2,0.5,1.2,1.2l0,0
								C640.1,369.9,639.6,370.5,638.9,370.5z"/>
							<path class="st12" d="M654.2,370.5h-10.9c-0.7,0-1.2-0.5-1.2-1.2l0,0c0-0.7,0.5-1.2,1.2-1.2h10.9c0.7,0,1.2,0.5,1.2,1.2l0,0
								C655.4,369.9,654.9,370.5,654.2,370.5z"/>
							<path class="st12" d="M628.9,370.5h-28.7c-0.7,0-1.2-0.5-1.2-1.2l0,0c0-0.7,0.5-1.2,1.2-1.2h28.7c0.7,0,1.2,0.5,1.2,1.2l0,0
								C630.1,369.9,629.6,370.5,628.9,370.5z"/>
						</g>
					</g>
					<g>
						<path class="st12" d="M688.6,335.1H604c-2.8,0-5-2.3-5-5l0,0c0-2.8,2.3-5,5-5h84.6c2.8,0,5,2.3,5,5l0,0
							C693.6,332.8,691.4,335.1,688.6,335.1z"/>
						<g>
							<g>
								<circle class="st11" cx="604.5" cy="329.4" r="2.8"/>
								<path class="st12" d="M602.7,329.4c0-1,0.8-1.8,1.8-1.8s1.8,0.8,1.8,1.8s-0.8,1.8-1.8,1.8S602.7,330.4,602.7,329.4z"/>
							</g>
							<path class="st11" d="M609,333.7L609,333.7c-0.2,0.2-0.5,0.3-0.8,0.1l-2.3-2.1c-0.2-0.2-0.2-0.5,0-0.7l0,0
								c0.2-0.2,0.5-0.2,0.7,0l2.3,2.1C609.1,333.1,609.2,333.5,609,333.7z"/>
						</g>
					</g>
					<g>
						<path class="st12" d="M599,342.1c0-1.5,1.2-2.7,2.7-2.7s2.7,1.2,2.7,2.7s-1.2,2.7-2.7,2.7S599,343.5,599,342.1z"/>
						<path class="st12" d="M607,342.1c0-1.5,1.2-2.7,2.7-2.7s2.7,1.2,2.7,2.7s-1.2,2.7-2.7,2.7S607,343.5,607,342.1z"/>
						<path class="st12" d="M615,342.1c0-1.5,1.2-2.7,2.7-2.7s2.7,1.2,2.7,2.7s-1.2,2.7-2.7,2.7S615,343.5,615,342.1z"/>
						<path class="st12" d="M623.1,342.1c0-1.5,1.2-2.7,2.7-2.7s2.7,1.2,2.7,2.7s-1.2,2.7-2.7,2.7S623.1,343.5,623.1,342.1z"/>
						<path class="st12" d="M631.1,342.1c0-1.5,1.2-2.7,2.7-2.7s2.7,1.2,2.7,2.7s-1.2,2.7-2.7,2.7S631.1,343.5,631.1,342.1z"/>
					</g>
				</g>
			</g>
		</g>
		<g>
			<path class="st11" d="M716.7,313.4h68.4c2.8,0,5.1,2.3,5.1,5.1v32.8c0,2.8-2.3,5.1-5.1,5.1h-68.4c-2.8,0-5.1-2.3-5.1-5.1v-32.8
				C711.6,315.7,713.9,313.4,716.7,313.4z"/>
			<g>
				<path class="st12" d="M790.3,318.5v3h-78.7v-3c0-2.8,2.3-5.1,5.1-5.1h68.4C788,313.4,790.3,315.7,790.3,318.5z"/>
				<g>
					<path class="st11" d="M715.6,317.5c0-0.8,0.6-1.4,1.4-1.4s1.4,0.6,1.4,1.4s-0.6,1.4-1.4,1.4S715.6,318.3,715.6,317.5z"/>
					<path class="st11" d="M720.7,317.5c0-0.8,0.6-1.4,1.4-1.4s1.4,0.6,1.4,1.4s-0.6,1.4-1.4,1.4S720.7,318.3,720.7,317.5z"/>
					<path class="st11" d="M725.8,317.5c0-0.8,0.6-1.4,1.4-1.4s1.4,0.6,1.4,1.4s-0.6,1.4-1.4,1.4S725.8,318.3,725.8,317.5z"/>
				</g>
			</g>
			<g>
				<g>
					<path class="st12" d="M724.2,351.3L724.2,351.3c-1,0-1.7-0.8-1.7-1.7v-21.8c0-1,0.8-1.7,1.7-1.7l0,0c1,0,1.7,0.8,1.7,1.7v21.8
						C726,350.5,725.2,351.3,724.2,351.3z"/>
					<path class="st7" d="M727.2,336.8h-6c-1,0-1.7-0.8-1.7-1.7l0,0c0-1,0.8-1.7,1.7-1.7h6c1,0,1.7,0.8,1.7,1.7l0,0
						C728.9,336,728.2,336.8,727.2,336.8z"/>
				</g>
				<g>
					<path class="st12" d="M737.5,351.3L737.5,351.3c-1,0-1.7-0.8-1.7-1.7v-21.8c0-1,0.8-1.7,1.7-1.7l0,0c1,0,1.7,0.8,1.7,1.7v21.8
						C739.2,350.5,738.4,351.3,737.5,351.3z"/>
					<path class="st7" d="M740.5,341h-6c-1,0-1.7-0.8-1.7-1.7l0,0c0-1,0.8-1.7,1.7-1.7h6c1,0,1.7,0.8,1.7,1.7l0,0
						C742.2,340.3,741.4,341,740.5,341z"/>
				</g>
				<g>
					<path class="st12" d="M750.7,351.3L750.7,351.3c-1,0-1.7-0.8-1.7-1.7v-21.8c0-1,0.8-1.7,1.7-1.7l0,0c1,0,1.7,0.8,1.7,1.7v21.8
						C752.5,350.5,751.7,351.3,750.7,351.3z"/>
					<path class="st7" d="M753.7,333.8h-6c-1,0-1.7-0.8-1.7-1.7l0,0c0-1,0.8-1.7,1.7-1.7h6c1,0,1.7,0.8,1.7,1.7l0,0
						C755.4,333,754.7,333.8,753.7,333.8z"/>
				</g>
				<g>
					<path class="st12" d="M764,351.3L764,351.3c-1,0-1.7-0.8-1.7-1.7v-21.8c0-1,0.8-1.7,1.7-1.7l0,0c1,0,1.7,0.8,1.7,1.7v21.8
						C765.7,350.5,764.9,351.3,764,351.3z"/>
					<path class="st7" d="M767,347h-6c-1,0-1.7-0.8-1.7-1.7l0,0c0-1,0.8-1.7,1.7-1.7h6c1,0,1.7,0.8,1.7,1.7l0,0
						C768.7,346.3,767.9,347,767,347z"/>
				</g>
				<g>
					<path class="st12" d="M777.6,351.3L777.6,351.3c-1,0-1.7-0.8-1.7-1.7v-21.8c0-1,0.8-1.7,1.7-1.7l0,0c1,0,1.7,0.8,1.7,1.7v21.8
						C779.4,350.5,778.6,351.3,777.6,351.3z"/>
					<path class="st7" d="M780.7,333.8h-6c-1,0-1.7-0.8-1.7-1.7l0,0c0-1,0.8-1.7,1.7-1.7h6c1,0,1.7,0.8,1.7,1.7l0,0
						C782.4,333,781.6,333.8,780.7,333.8z"/>
				</g>
			</g>
		</g>
		<g>
			<path class="st12" d="M716.7,366.1h68.8c2.7,0,5,2.2,5,5v55.7c0,2.7-2.2,5-5,5h-68.8c-2.7,0-5-2.2-5-5v-55.7
				C711.7,368.4,714,366.1,716.7,366.1z"/>
			<path class="st11" d="M790.5,371.1v3.1h-78.7v-3.1c0-2.7,2.2-5,5-5h68.8C788.2,366.1,790.5,368.4,790.5,371.1L790.5,371.1z"/>
			<g>
				<path class="st12" d="M715.6,370.5c0-0.8,0.6-1.4,1.4-1.4s1.4,0.6,1.4,1.4s-0.6,1.4-1.4,1.4S715.6,371.3,715.6,370.5z"/>
				<path class="st12" d="M720.7,370.5c0-0.8,0.6-1.4,1.4-1.4s1.4,0.6,1.4,1.4s-0.6,1.4-1.4,1.4S720.7,371.3,720.7,370.5z"/>
				<path class="st12" d="M725.8,370.5c0-0.8,0.6-1.4,1.4-1.4s1.4,0.6,1.4,1.4s-0.6,1.4-1.4,1.4S725.8,371.3,725.8,370.5z"/>
			</g>
			<g>
				<path class="st7" d="M716.8,379h2.7c0.7,0,1.2,0.5,1.2,1.2v0c0,0.7-0.5,1.2-1.2,1.2h-2.7c-0.7,0-1.2-0.5-1.2-1.2v0
					C715.6,379.6,716.2,379,716.8,379z"/>
				<path class="st7" d="M716.8,384.5h2.7c0.7,0,1.2,0.5,1.2,1.2v0c0,0.7-0.5,1.2-1.2,1.2h-2.7c-0.7,0-1.2-0.5-1.2-1.2v0
					C715.6,385,716.2,384.5,716.8,384.5z"/>
				<path class="st7" d="M716.8,390h2.7c0.7,0,1.2,0.5,1.2,1.2v0c0,0.7-0.5,1.2-1.2,1.2h-2.7c-0.7,0-1.2-0.5-1.2-1.2v0
					C715.6,390.5,716.2,390,716.8,390z"/>
				<path class="st7" d="M716.8,395.4h2.7c0.7,0,1.2,0.5,1.2,1.2v0c0,0.7-0.5,1.2-1.2,1.2h-2.7c-0.7,0-1.2-0.5-1.2-1.2v0
					C715.6,395.9,716.2,395.4,716.8,395.4z"/>
				<path class="st7" d="M716.8,400.9h2.7c0.7,0,1.2,0.5,1.2,1.2v0c0,0.7-0.5,1.2-1.2,1.2h-2.7c-0.7,0-1.2-0.5-1.2-1.2v0
					C715.6,401.4,716.2,400.9,716.8,400.9z"/>
				<path class="st7" d="M716.8,406.3h2.7c0.7,0,1.2,0.5,1.2,1.2v0c0,0.7-0.5,1.2-1.2,1.2h-2.7c-0.7,0-1.2-0.5-1.2-1.2v0
					C715.6,406.9,716.2,406.3,716.8,406.3z"/>
				<path class="st7" d="M716.8,411.8h2.7c0.7,0,1.2,0.5,1.2,1.2v0c0,0.7-0.5,1.2-1.2,1.2h-2.7c-0.7,0-1.2-0.5-1.2-1.2v0
					C715.6,412.3,716.2,411.8,716.8,411.8z"/>
				<path class="st7" d="M716.8,417.2h2.7c0.7,0,1.2,0.5,1.2,1.2v0c0,0.7-0.5,1.2-1.2,1.2h-2.7c-0.7,0-1.2-0.5-1.2-1.2v0
					C715.6,417.8,716.2,417.2,716.8,417.2z"/>
				<path class="st7" d="M716.8,422.7h2.7c0.7,0,1.2,0.5,1.2,1.2v0c0,0.7-0.5,1.2-1.2,1.2h-2.7c-0.7,0-1.2-0.5-1.2-1.2v0
					C715.6,423.2,716.2,422.7,716.8,422.7z"/>
				<path class="st7" d="M734.2,392.4h-10.9c-0.7,0-1.2-0.5-1.2-1.2l0,0c0-0.7,0.5-1.2,1.2-1.2h10.9c0.7,0,1.2,0.5,1.2,1.2l0,0
					C735.4,391.9,734.8,392.4,734.2,392.4z"/>
				<path class="st7" d="M734.2,397.9h-10.9c-0.7,0-1.2-0.5-1.2-1.2l0,0c0-0.7,0.5-1.2,1.2-1.2h10.9c0.7,0,1.2,0.5,1.2,1.2l0,0
					C735.4,397.3,734.8,397.9,734.2,397.9z"/>
				<path class="st7" d="M734.2,419.6h-10.9c-0.7,0-1.2-0.5-1.2-1.2l0,0c0-0.7,0.5-1.2,1.2-1.2h10.9c0.7,0,1.2,0.5,1.2,1.2l0,0
					C735.4,419.1,734.8,419.6,734.2,419.6z"/>
			</g>
		</g>
	</g>
</g>
<g>
	<g>
		<path class="st13" d="M327.7,502.5h8.3c2.9,0,5.3-2.4,5.3-5.3v-14.9c0-2.9-2.4-5.3-5.3-5.3h-8.5c0-1.5-0.1-3-0.1-4.5h11.8
			c3.8,0,7,3.1,7,7v20.6c0,3.8-3.1,7-7,7h-12.1C327.3,505.5,327.5,504.1,327.7,502.5L327.7,502.5z"/>
		<path class="st14" d="M331.9,466.8v45.3c0,2.3-1.6,4.2-3.6,4.2h-33.4c-2,0-3.6-1.9-3.6-4.2v-45.3c0-2.3,1.6-4.2,3.6-4.2h33.4
			C330.3,462.5,331.9,464.4,331.9,466.8L331.9,466.8z"/>
		<path class="st13" d="M332.5,466.8v45.3c0,2.3-1.6,4.2-3.6,4.2h-23.5c-2,0-3.6-1.9-3.6-4.2v-45.3c0-2.3,1.6-4.2,3.6-4.2h23.5
			C330.9,462.5,332.5,464.4,332.5,466.8L332.5,466.8z"/>
	</g>
	<g>
		<g>
			<path class="st15" d="M922.8,347.8c-13.8,25.3-19,55-14.5,83.4c0.4,2.4,4.1,1.9,3.7-0.5c-4.4-27.9,0.7-56.7,14.2-81.5
				C927.4,347,923.9,345.6,922.8,347.8L922.8,347.8z"/>
			<path class="st10" d="M940.7,341.9c0.7-1,1.2-2.2,1.3-3.4c0.2-2.3-1.1-4.4-3.2-5.3c-3.8-1.5-6.8,0.5-9.1,3.3
				c-0.8-2.3-2.1-4.5-4.2-5.9c-2.3-1.4-5.3-1.6-7.7-0.3c-3.1,1.7-3.8,5.9-2.1,8.5c-2,0.2-4,0.6-5.8,1.7c-2.3,1.4-4,4-4,6.7
				c0,2.7,1.9,4.9,4.5,5.7c2.2,0.7,4.5,0.4,6.7-0.2c-1.4,5.2,2.1,11,8,11.2c5.4,0.2,9.3-4.4,9.1-9.2c0.1-0.4,0.3-0.8,0.4-1.2
				c1.8,0.4,3.8,0.5,5.6-0.2c2.4-0.9,4.5-3.1,4.8-5.7C945.1,344.8,943.1,342.5,940.7,341.9L940.7,341.9z"/>
			<path class="st9" d="M927.8,341.9c-1.8,0-3.5,0.9-3.7,2.9c-0.2,1.6,1.1,3.7,2.9,3.7s3.5-0.9,3.7-2.9
				C930.9,344,929.6,341.9,927.8,341.9z"/>
		</g>
		<g>
			<g>
				<ellipse class="st16" cx="908.8" cy="474.1" rx="27.6" ry="38.5"/>
				<path class="st16" d="M916.6,402.2v60.1c0,4.4-2.6,8.1-5.8,8.1h-4.2c-3.2,0-5.8-3.6-5.8-8.1v-60.1c0-4.4,2.6-8.1,5.8-8.1h4.2
					C914,394.2,916.6,397.8,916.6,402.2z"/>
				<path class="st17" d="M927.4,508.5c0,0.8-0.1,1.5-0.2,2.3c-0.3,1.2-0.7,2.2-1.3,3.1c-1,1.4-2.3,2.2-3.8,2.2h-26.4
					c-2.4,0-4.5-2.2-5.2-5.3c-0.2-0.7-0.2-1.5-0.2-2.3c0-2.1,0.6-4,1.6-5.3s2.3-2.2,3.8-2.2H922C925,500.9,927.4,504.3,927.4,508.5
					L927.4,508.5z"/>
				<path class="st16" d="M900.7,390.6h16.1c3.1,0,5.7,2.5,5.7,5.7v2c0,3.1-2.5,5.7-5.7,5.7h-16.1c-3.1,0-5.7-2.5-5.7-5.7v-2
					C895.1,393.1,897.6,390.6,900.7,390.6z"/>
				<path class="st16" d="M927.4,508.5c0,0.8-0.1,1.5-0.2,2.3h-36.7c-0.2-0.7-0.2-1.5-0.2-2.3c0-2.1,0.6-4,1.6-5.3s2.3-2.2,3.8-2.2
					H922C925,500.9,927.4,504.3,927.4,508.5z"/>
				<rect x="900.9" y="403.9" class="st17" width="15.7" height="4.7"/>
			</g>
			<g>
				<path class="st17" d="M901.7,509.5c-0.8-7.3-0.7-14.7-0.7-22c0.1-11,1-21.9,2.1-32.8c0.7-6.3,1.4-12.5,2.1-18.8
					c-13.5,2.4-24,18.6-24,38.2c0,18,8.8,33.1,20.8,37.3C901.9,510.8,901.8,510.1,901.7,509.5L901.7,509.5z"/>
				<path class="st17" d="M903.1,454.7c1.1-11,2.5-21.9,3.5-32.9c0.8-9.2,1.4-18.5,0.2-27.6h-0.2c-3.2,0-5.8,3.6-5.8,8.1v60.1
					c0,1.7,0.4,3.3,1,4.6C902.3,462.9,902.7,458.8,903.1,454.7L903.1,454.7z"/>
				<path class="st17" d="M901.7,509.5c-0.3-2.8-0.5-5.7-0.6-8.6h-5.6c-1.5,0-2.8,0.9-3.8,2.2s-1.6,3.2-1.6,5.3
					c0,0.8,0.1,1.5,0.2,2.3c0.7,3.1,2.8,5.3,5.2,5.3h7.2C902.3,513.9,901.9,511.7,901.7,509.5L901.7,509.5z"/>
				<path class="st17" d="M906.3,390.6h-6.5c-2.6,0-4.8,3-4.8,6.7s2.2,6.7,4.8,6.7h7.7C907.5,399.4,907.2,395,906.3,390.6
					L906.3,390.6z"/>
				<path class="st17" d="M901.7,509.5c-0.3-2.8-0.5-5.7-0.6-8.6h-5.6c-1.5,0-2.8,0.9-3.8,2.2s-1.6,3.2-1.6,5.3
					c0,0.8,0.1,1.5,0.2,2.3h11.5C901.8,510.3,901.8,509.9,901.7,509.5L901.7,509.5z"/>
				<path class="st17" d="M907.6,403.9h-6.6v4.7h6.6C907.6,407.1,907.6,405.5,907.6,403.9z"/>
			</g>
		</g>
	</g>
	<g>
		<g>
			<path class="st7" d="M876.7,504.2l-3.4,0.5c-0.7,0.1-1.3-0.5-1.4-1.2l-9.5-72.9c-0.1-0.5,0.4-6,0.7-10c0.2-2.3,0.4-4.2,0.4-4.2
				s0.6,1.7,1.5,3.9c1.4,3.8,3.3,9,3.3,9.5l9.5,72.9C877.8,503.4,877.3,504.1,876.7,504.2L876.7,504.2z"/>
			<path class="st9" d="M877.9,504.2l-9.6-74.1l-5.9,0.8L872,505c0.1,0.9,0.9,1.5,1.8,1.4l2.8-0.4
				C877.4,505.9,878,505.1,877.9,504.2L877.9,504.2z"/>
			<path class="st16" d="M877.9,504.5l-0.4-3.1l-5.9,0.8l0.4,3.1c0.2,1.6,1.6,2.7,3.2,2.5l0.2,0C877,507.5,878.1,506.1,877.9,504.5
				L877.9,504.5z"/>
			<path class="st18" d="M877.6,502.2l-0.1-0.9l-5.9,0.8l0.1,0.9c0,0.1,0.1,0.2,0.2,0.2l5.5-0.7
				C877.6,502.4,877.7,502.3,877.6,502.2L877.6,502.2z"/>
			<path class="st18" d="M864.9,420.2l-1.8,0.2c0.2-2.3,0.4-4.2,0.4-4.2S864.1,418,864.9,420.2L864.9,420.2z"/>
		</g>
		<g>
			<path class="st7" d="M881.8,430l3.2,0.6c0.6,0.1,1,0.8,0.9,1.5l-13.6,67.8c-0.1,0.5-2.2,5.2-3.7,8.7c-0.9,2-1.6,3.6-1.6,3.6
				s0-1.7-0.1-3.9c-0.1-3.8-0.2-9-0.1-9.5l13.6-67.8C880.6,430.3,881.2,429.8,881.8,430L881.8,430z"/>
			<path class="st9" d="M880.7,429.6l-13.9,68.9l5.5,1.1l13.9-68.9c0.2-0.8-0.4-1.6-1.2-1.7l-2.6-0.5
				C881.7,428.3,880.9,428.8,880.7,429.6L880.7,429.6z"/>
			<path class="st16" d="M880.8,429.4l-0.6,2.9l5.5,1.1l0.6-2.9c0.3-1.5-0.7-2.9-2.1-3.2l-0.2,0C882.5,427,881.1,427.9,880.8,429.4
				L880.8,429.4z"/>
			<path class="st18" d="M880.4,431.5l-0.2,0.8l5.5,1.1l0.2-0.8c0-0.1,0-0.2-0.1-0.2l-5.1-1C880.5,431.3,880.4,431.4,880.4,431.5
				L880.4,431.5z"/>
			<path class="st18" d="M866.9,508.3l1.7,0.3c-0.9,2-1.6,3.6-1.6,3.6S867,510.5,866.9,508.3z"/>
		</g>
		<g>
			<path class="st18" d="M864.1,494.3L864.1,494.3c-0.3,0-0.5-0.2-0.5-0.5l-0.6-9.9c0-0.3,0.2-0.5,0.5-0.5l0,0
				c0.3,0,0.5,0.2,0.5,0.5l0.6,9.9C864.5,494.1,864.3,494.3,864.1,494.3z"/>
			<path class="st19" d="M863.8,491L863.8,491c-1.4,0.1-2.5-1-2.6-2.3l-3.4-54.8c-0.1-1.4,1-2.5,2.3-2.6l0,0c1.4-0.1,2.5,1,2.6,2.3
				l3.4,54.8C866.2,489.8,865.2,491,863.8,491z"/>
			<path class="st19" d="M860.2,432.6L860.2,432.6c-0.8,0-1.4-0.5-1.5-1.3l-0.4-6.7c0-0.8,0.5-1.4,1.3-1.5l0,0
				c0.8,0,1.4,0.5,1.5,1.3l0.4,6.7C861.5,431.9,860.9,432.6,860.2,432.6z"/>
			<path class="st14" d="M864.2,457.8l-4.9,0.3c-0.5,0-0.8-0.3-0.9-0.8l-1.7-27.5c-0.1-1.8,1.3-3.4,3.1-3.5l0,0
				c1.8-0.1,3.4,1.3,3.5,3.1l1.7,27.5C865,457.3,864.6,457.7,864.2,457.8L864.2,457.8z"/>
			<path class="st19" d="M857.1,432.9l6.1-0.4c0.4,0,0.7,0.2,0.7,0.6l0,0.2c0,0.4-0.2,0.7-0.6,0.7l-6.1,0.4c-0.4,0-0.7-0.2-0.7-0.6
				l0-0.2C856.5,433.2,856.7,432.9,857.1,432.9z"/>
			<path class="st19" d="M857.2,435.1l6.1-0.4c0.4,0,0.7,0.2,0.7,0.6l0,0.2c0,0.4-0.2,0.7-0.6,0.7l-6.1,0.4c-0.4,0-0.7-0.2-0.7-0.6
				l0-0.2C856.6,435.4,856.9,435.1,857.2,435.1z"/>
		</g>
		<g>
			<path class="st4" d="M857.5,444.3h27.8c2.1,0,3.8,1.7,3.8,3.8v64.5c0,2.1-1.7,3.8-3.8,3.8h-27.8c-2.1,0-3.8-1.7-3.8-3.8V448
				C853.7,446,855.4,444.3,857.5,444.3L857.5,444.3z"/>
			<path class="st3" d="M888.9,448v64.5c0,2.1-1.7,3.8-3.8,3.8h-21v-72h21C887.2,444.3,888.9,446,888.9,448L888.9,448z"/>
		</g>
	</g>
</g>
<g>
	<path class="st20" d="M482.5,333H508c3.1,0,5.6,2.5,5.6,5.6v53.3c0,3.1-2.5,5.6-5.6,5.6h-25.5c-3.1,0-5.6-2.5-5.6-5.6v-53.3
		C476.9,335.5,479.4,333,482.5,333z"/>
	<path class="st21" d="M513.6,369.3v14.3c-12.7-4.9-34.9-26.6-36.7-36.7v-8.4c0-1.3,0.4-2.4,1.1-3.4c2.5,4.8,4.4,7.8,4.4,7.8
		l1.8,2.1C487.6,354.8,500.9,364.4,513.6,369.3z"/>
	<g>
		<g>
			<path class="st20" d="M529.5,372.6c-14.8,0.4-40.4-13.6-45.2-27.5l-1.8-2.1c0,0-31.2-48.9-6.9-70.8c5.6-5.1,14.6-4.1,22.2-4.2
				l8.6-0.1c21.1-0.3,38.5,13.9,38.8,31.4l0.2,12.1l0.2,17.1C545.4,328.5,545.3,372.3,529.5,372.6L529.5,372.6z"/>
			<path class="st7" d="M477,338.2c0,0-0.1,0.1-0.1,0.1c0,0,0,0-0.1,0c0,0,0,0,0,0C476.8,338.3,476.9,338.2,477,338.2L477,338.2z"/>
			<path class="st20" d="M543.7,319.5c6.9,4.5,10.9,10.6,9,13.6c-2,3-9.2,1.8-16.1-2.7s-10.9-10.6-9-13.6
				C529.5,313.8,536.7,315,543.7,319.5z"/>
			<path class="st22" d="M479.8,268.5c0,0-22.1-0.1-26.9,2.9c-7.4,4.7-10.6,13.4-8.8,21.4c0,0,0,0,0,0.1l0,0.1
				c0.3,1.2,0.7,2.3,1.1,3.4l10.4,30.9c2.3,14.7,12.1,20.6,21.4,20.5c0,0,16.5-0.9,17-20.9l2.7-35.1
				C496.7,279,489,268.5,479.8,268.5L479.8,268.5z"/>
			<path class="st20" d="M532,346.9l12.4,1.5c1.5,0.2,2.9-0.9,3.1-2.4l0,0c0.2-1.5-0.9-2.9-2.4-3.1l-12.4-1.5
				c-1.5-0.2-2.9,0.9-3.1,2.4l0,0C529.3,345.3,530.4,346.7,532,346.9z"/>
			<path class="st20" d="M530.3,351.5l12.4,1.5c1.5,0.2,2.9-0.9,3.1-2.4l0,0c0.2-1.5-0.9-2.9-2.4-3.1l-12.4-1.5
				c-1.5-0.2-2.9,0.9-3.1,2.4l0,0C527.7,349.9,528.8,351.3,530.3,351.5z"/>
			<path class="st22" d="M490.6,319.1H483c-4,0-7.4-3.3-7.4-7.4V266c0-4,3.3-7.4,7.4-7.4h14.3c4,0,7.4,3.3,7.4,7.4v39.1
				C504.6,312.8,498.3,319.1,490.6,319.1z"/>
			<g>
				<g>
					<path class="st7" d="M543.3,312.2c0.7-4.4-2.3-8.6-6.8-9.3c-4.4-0.7-8.6,2.3-9.3,6.8s2.3,8.6,6.8,9.3
						C538.5,319.6,542.6,316.6,543.3,312.2z"/>
					<path class="st23" d="M543.2,312.7c0.5-3-1.6-5.8-4.6-6.3s-5.8,1.6-6.3,4.6c-0.5,3,1.6,5.8,4.6,6.3S542.7,315.7,543.2,312.7z"
						/>
					<path class="st24" d="M543,312.7c0.4-2.3-1.2-4.5-3.5-4.9c-2.3-0.4-4.5,1.2-4.8,3.5s1.2,4.5,3.5,4.9
						C540.4,316.5,542.6,315,543,312.7z"/>
					<path class="st7" d="M534.9,309.9c0-0.1,0.6-0.2,1.3,0c0.7,0.1,1.2,0.3,1.2,0.4c0,0.1-0.6,0.2-1.3,0S534.9,310,534.9,309.9z"/>
					<path class="st7" d="M537.9,311.7c0-0.1-0.1-0.3-0.2-0.3c-0.1,0-0.3,0.1-0.3,0.2c0,0.1,0.1,0.3,0.2,0.3
						C537.8,311.9,537.9,311.8,537.9,311.7z"/>
				</g>
				<path class="st20" d="M520.1,302.7l21-2.3c1.8-0.2,3.4,1.1,3.6,2.9l0.4,3.4c0.2,1.8-1.1,3.4-2.9,3.6l-21,2.3
					c-1.8,0.2-3.4-1.1-3.6-2.9l-0.4-3.4C517.1,304.5,518.4,302.9,520.1,302.7z"/>
				<path class="st22" d="M526.2,299.4l16.6-1.8c1.5-0.2,2.9,0.9,3.1,2.5l0,0.4c0.2,1.5-0.9,2.9-2.5,3.1l-16.6,1.8
					c-1.5,0.2-2.9-0.9-3.1-2.5l0-0.4C523.6,301,524.7,299.6,526.2,299.4z"/>
			</g>
			<g>
				<path class="st20" d="M490.4,333.4h-0.3c-4.7,0-8.6-3.8-8.6-8.5v-0.3c0-4.7,3.8-8.6,8.5-8.6h0.3c4.7,0,8.6,3.8,8.6,8.5v0.3
					C498.9,329.5,495.1,333.4,490.4,333.4z"/>
				<path class="st21" d="M490.3,328.8h-0.1c-2.2,0-4-1.8-4.1-4v-0.1c0-2.2,1.8-4,4-4.1h0.1c2.2,0,4,1.8,4.1,4v0.1
					C494.3,327,492.5,328.8,490.3,328.8z"/>
			</g>
		</g>
		<path class="st22" d="M500.6,245.1c-8.2,1.9-16.2,4.6-19.7,5.8c-1,0.4-2.1,0.7-3.1,1c-10.8,3.3-17.5,10.8-16.8,21.8l0.2,4
			c0.3,4.7,4.1,8.2,8.5,7.9l73.2,4.1c0,0,27-1.3,22.8-41c-0.8,0.5-12,4.1-21.1,5.4c-3.7,0.5-8.7-3.2-13.2-6
			C522.3,242.5,511.1,242.6,500.6,245.1L500.6,245.1z"/>
	</g>
	<g>
		<path class="st25" d="M594.2,642.3l10.4,5.1c7.7,3.8,10.8,13.2,7,20.8l-47.4,95.9c-1.2,2.5-4.3,3.5-6.8,2.3l-24.3-12l54.3-109.9
			C588.7,642.1,591.7,641,594.2,642.3L594.2,642.3z"/>
		<g>
			<g>
				<path class="st26" d="M602.7,810.9c-0.2,0.4-0.5,0.7-0.9,0.8c-0.4,0.2-0.8,0.2-1.2,0l-76.5-32.7l-10.2-4.3
					c-1-0.4-1.5-1.6-1.1-2.7l5.1-11.8c0.8-1.8,2.1-4.1,3.9-6.3c0.7-0.8,1.4-1.6,2.2-2.3c3.2-2.8,7.8-3.5,11.7-1.8l51.4,22
					C602.1,778.3,609.1,795.9,602.7,810.9L602.7,810.9z"/>
				<path class="st8" d="M600,814.6l-88.2-37.1c-1.9-0.8-2.7-2.9-2-4.8l0,0c0.8-1.9,2.9-2.7,4.8-2l88.2,37.1c1.9,0.8,2.7,2.9,2,4.8
					l0,0C604.1,814.5,601.9,815.4,600,814.6L600,814.6z"/>
			</g>
			<path class="st8" d="M561.9,770.3L561.9,770.3c0.8,0.6,1.9,0.5,2.5-0.3l4.1-5.3c0.6-0.8,0.5-2-0.2-2.6l0,0
				c-0.8-0.6-1.9-0.5-2.5,0.3l-4.1,5.3C561.1,768.5,561.2,769.7,561.9,770.3z"/>
			<path class="st8" d="M568.5,773.1L568.5,773.1c0.8,0.6,1.9,0.5,2.5-0.3l4.1-5.3c0.6-0.8,0.5-2-0.2-2.6l0,0
				c-0.8-0.6-1.9-0.5-2.5,0.3l-4.1,5.3C567.7,771.3,567.8,772.5,568.5,773.1z"/>
			<path class="st8" d="M575.2,776L575.2,776c0.8,0.6,1.9,0.5,2.5-0.3l4.1-5.3c0.6-0.8,0.5-2-0.2-2.6l0,0c-0.8-0.6-1.9-0.5-2.5,0.3
				l-4.1,5.3C574.3,774.2,574.4,775.3,575.2,776z"/>
		</g>
		<path class="st26" d="M464.2,619.5V578c0-1.5,1.2-2.7,2.7-2.7h167.3c9,0,16.4,7.4,16.4,16.4v8.9c0,11.8-9.7,21.5-21.5,21.5H466.9
			C465.4,622.1,464.2,620.9,464.2,619.5L464.2,619.5z"/>
		<path class="st20" d="M648.1,654.5l24.4,0.3c3,0,5.3,2.2,5.3,4.9l-1.6,124.1l-34-0.4l-0.1-123.7
			C642.3,656.8,644.9,654.5,648.1,654.5L648.1,654.5z"/>
		<path class="st26" d="M536.5,740.9l37.4,18.4c1.3,0.6,2.8,0.1,3.4-1.2l68.1-138.7c3.8-7.8,0.6-17.3-7.2-21.1l-25.5-12.5
			c-1.3-0.6-2.8-0.1-3.4,1.2l-74,150.6C534.8,738.7,535.3,740.3,536.5,740.9L536.5,740.9z"/>
		<path class="st18" d="M488,627.6v-43.4c0-1.5,1.3-2.8,2.8-2.8h177.6c9.5,0,17.3,7.8,17.3,17.3v9.1c0,12.5-10.2,22.7-22.7,22.7
			H490.8C489.2,630.4,488,629.1,488,627.6L488,627.6z"/>
		<path class="st18" d="M637.2,765.6l44.2,0.5c1.5,0,2.7-1.2,2.7-2.6l1.6-157.6c0.1-7-5.6-12.7-12.5-12.8l-34.2-0.3
			c-1.5,0-2.7,1.2-2.7,2.6L634.6,763C634.6,764.4,635.7,765.6,637.2,765.6L637.2,765.6z"/>
		<path class="st18" d="M465.2,630.6h54.6c8.9,0,16.2-11,16.2-24.6l-0.5-44.5H449l0,44.5C449,619.6,456.3,630.6,465.2,630.6
			L465.2,630.6z"/>
		<path class="st15" d="M445.8,601.6l90-20.2c0.8,0,1.4-0.8,1.5-1.9l4.2-153.4c0.8-27.1-15.1-49.5-35.4-50.1l-29.1,0.4
			c-17.7-0.5-25.1,17.3-25.8,41L445.8,601.6L445.8,601.6z"/>
		<g>
			<g>
				<path class="st18" d="M729.9,809.2c0,0.4-0.2,0.8-0.5,1.1c-0.3,0.3-0.7,0.5-1.1,0.5l-83.2-0.5l-11.1-0.1c-1.1,0-2-0.9-2-2.1
					l0.1-12.9c0-1.9,0.3-4.6,1.2-7.3c0.3-1,0.7-2,1.1-2.9c1.9-3.9,5.8-6.2,10.1-6.2l55.9,0.3C716.8,779.3,730,792.8,729.9,809.2
					L729.9,809.2z"/>
				<path class="st27" d="M728.9,813.6h-95.7c-2,0-3.7-1.7-3.7-3.7l0,0c0-2,1.7-3.7,3.7-3.7h95.7c2,0,3.7,1.7,3.7,3.7l0,0
					C732.6,811.9,731,813.6,728.9,813.6L728.9,813.6z"/>
			</g>
			<path class="st7" d="M676.6,787.5L676.6,787.5c0.9,0.3,1.9-0.3,2.2-1.3l1.7-6.5c0.3-1-0.3-2-1.2-2.3l0,0
				c-0.9-0.3-1.9,0.3-2.2,1.3l-1.7,6.5C675.2,786.2,675.7,787.2,676.6,787.5z"/>
			<path class="st7" d="M683.8,787.5L683.8,787.5c0.9,0.3,1.9-0.3,2.2-1.3l1.7-6.5c0.3-1-0.3-2-1.2-2.3l0,0
				c-0.9-0.3-1.9,0.3-2.2,1.3l-1.7,6.5C682.4,786.2,682.9,787.3,683.8,787.5z"/>
			<path class="st7" d="M691,787.6L691,787.6c0.9,0.3,1.9-0.3,2.2-1.3l1.7-6.5c0.3-1-0.3-2-1.2-2.3l0,0c-0.9-0.3-1.9,0.3-2.2,1.3
				l-1.7,6.5C689.6,786.3,690.1,787.3,691,787.6z"/>
		</g>
	</g>
</g>
<g>
	<path class="st5" d="M699.7,493.1c-16.5,0.1-30.2,8.3-34,19.2c-1,2.7,2,5.4,5.9,5.3l56.5-0.5c4,0,6.8-2.7,5.8-5.4
		C730,500.9,716.2,492.9,699.7,493.1L699.7,493.1z"/>
	<path class="st28" d="M688.5,482.4c-15.4,2.3-26.8,14.1-28.4,28.2c-0.4,3.5,2.8,6.4,6.5,5.9l52.8-7.8c3.7-0.5,5.9-4.2,4.5-7.5
		C718.2,488.2,703.8,480.1,688.5,482.4L688.5,482.4z"/>
	<path class="st20" d="M662.7,516.4l-112.8-10l2.5-28.6l133.5,16.7l-7.8,13.9C674.9,513.8,668.9,517,662.7,516.4L662.7,516.4z"/>
	<path class="st19" d="M546.4,506.5l13.8-9.5c4.9-3.4,6.1-10.1,2.8-15l-62.4-90.4c-3.4-4.9-10.1-6.1-15-2.8l-2.5,1.7
		c-11.1,7.7-13.9,23-6.2,34.1l54.6,79.1C534.7,508.6,541.5,509.9,546.4,506.5z"/>
	<path class="st19" d="M658.9,490.7l-3.7,32.2c-0.1,1.1-1.1,1.8-2.2,1.7l-13.3-1.8l-7.3-1l-8.8-1.2l-7.3-1l-8.8-1.2l-7.3-1
		l-59.2-7.8c-6.5-0.9-11.2-6.5-10.5-12.5l1.7-13.9c0.7-6,6.6-10.3,13.1-9.4l59.7,7.8l7.3,1l8.8,1.1l7.3,1l8.8,1.1l7.3,1l12.6,1.6
		C658.3,488.7,659,489.6,658.9,490.7L658.9,490.7z"/>
	<polygon class="st15" points="644.6,486.9 639.8,522.8 632.5,521.8 637.3,485.9 	"/>
	<polygon class="st15" points="628.5,484.8 623.7,520.7 616.4,519.7 621.2,483.9 	"/>
	<polygon class="st15" points="612.5,482.7 607.6,518.6 600.3,517.6 605.2,481.8 	"/>
</g>
<g>
	<path class="st17" d="M472.1,661.3h-25.7c-26.6,0-48.1-20-48.1-44.7V407.4c0-6,5.2-10.8,11.7-10.8h50.5c6.4,0,11.7,4.9,11.7,10.8
		v180.9c0,10.4,6.4,19.9,16.5,24.4l11.1,5L472.1,661.3L472.1,661.3z"/>
	<g>
		<path class="st6" d="M513.8,690.6L513.8,690.6c7.8,0,14.1,6.3,14.1,14.1v86.5c0,7.8-6.3,14.1-14.1,14.1l0,0
			c-7.8,0-14.1-6.3-14.1-14.1v-86.5C499.7,696.9,506,690.6,513.8,690.6z"/>
		<g>
			
				<ellipse transform="matrix(0.9871 -0.1602 0.1602 0.9871 -126.0457 80.2941)" class="st5" cx="434.9" cy="821.7" rx="13.4" ry="13.4"/>
			
				<ellipse transform="matrix(0.7071 -0.7071 0.7071 0.7071 -438.0488 586.0038)" class="st5" cx="488.3" cy="821.8" rx="13.4" ry="13.4"/>
			<circle class="st5" cx="541.9" cy="821.7" r="13.4"/>
			<circle class="st5" cx="595.4" cy="821.7" r="13.4"/>
		</g>
		<path class="st6" d="M436.6,816.7h156.5c7.8,0,14.2-6.4,14.2-14.2l0,0c0-7.8-6.4-14.2-14.2-14.2H436.6c-7.8,0-14.2,6.4-14.2,14.2
			l0,0C422.4,810.3,428.8,816.7,436.6,816.7L436.6,816.7z"/>
		<path class="st5" d="M502.8,640.5h22c7.8,0,14.2,6.3,14.2,14.2v55.8c0,7.8-6.3,14.2-14.2,14.2h-22c-7.8,0-14.2-6.3-14.2-14.2
			v-55.8C488.6,646.9,495,640.5,502.8,640.5z"/>
	</g>
	<path class="st5" d="M442,645.1h146.2c6.1,0,11,4.9,11,11v9.2c0,6.1-4.9,11-11,11H442c-6.1,0-11-4.9-11-11v-9.2
		C431,650.1,435.9,645.1,442,645.1z"/>
	<path class="st6" d="M469,544.7h96.1c3.6,0,6.6,2.9,6.6,6.6v7.4c0,3.6-2.9,6.6-6.6,6.6H469c-3.6,0-6.6-2.9-6.6-6.6v-7.4
		C462.4,547.6,465.4,544.7,469,544.7z"/>
	<path class="st16" d="M575.8,571.8h-73.4c-4.4,0-7.9-3.6-7.9-7.9v-17.7c0-4.4,3.6-7.9,7.9-7.9h73.4c8.9,0,16.2,7.3,16.2,16.2v1.1
		C592,564.5,584.7,571.9,575.8,571.8L575.8,571.8z"/>
	<path class="st17" d="M588.5,565.6c-3,3.8-7.6,6.2-12.8,6.2h-73.4c-3.8,0-7-2.7-7.8-6.2H588.5z"/>
	<path class="st16" d="M609.5,617.7H480.3c-12.9,0-23.3-9.7-23.3-21.7V407.4c0-6-5.2-10.8-11.7-10.8h-50.5
		c-6.4,0-11.7,4.9-11.7,10.8v209.1c0,24.4,21,44.2,47.2,44.7c0.9,0.1,1.9,0.2,2.8,0.2h176.3c12,0,21.8-9.1,21.8-20.3V638
		C631.2,626.8,621.4,617.7,609.5,617.7L609.5,617.7z"/>
</g>
</svg>
