<?xml version="1.0" ?><svg xmlns="http://www.w3.org/2000/svg" xmlns:xlink="http://www.w3.org/1999/xlink" version="1.1" id="Layer_1" viewBox="0 0 100 100" style="enable-background:new 0 0 100 100;" xml:space="preserve"><style type="text/css">
	.st0{fill:#D5FFA2;}
	.st1{fill:#333333;}
</style><g><path class="st0" d="M59,18.8h-3.6H25.9h-2.6c-2.4,0-4.4,2.1-4.4,4.5v2.4v5.7v2.3c0,2.4,2,4.5,4.4,4.5h1.3c0.4,0.1,0.8,0.1,1.2,0.1   h1.5v7.1l8.8-7.1h19.3c0.4,0,0.8,0,1.2-0.1h2.3c2.4,0,4.4-2,4.4-4.5V23.3C63.5,20.9,61.5,18.8,59,18.8z"/><g><path class="st1" d="M26.2,26h26.2c0.6,0,1.2-0.5,1.2-1.2s-0.5-1.2-1.2-1.2H26.2c-0.6,0-1.2,0.5-1.2,1.2S25.6,26,26.2,26z"/><path class="st1" d="M26.2,32h11.7c0.6,0,1.2-0.5,1.2-1.2s-0.5-1.2-1.2-1.2H26.2c-0.6,0-1.2,0.5-1.2,1.2S25.6,32,26.2,32z"/><path class="st1" d="M45.5,59.5c-0.4-0.4-1-0.8-1.6-0.9c0.2-1,0.4-2.1,0.8-2.9l2.6-1.1l2.7,4.2c0.4,0.8,1.3,1.3,2.3,1.3    c0.8,0,1.7-0.4,2.2-1.2l2.8-4.3l2.4,1c0.6,1.2,1,2.8,1.1,4.2c-0.6,0.2-1.1,0.7-1.5,1.3c-0.4,0.7-0.4,1.5-0.2,2.2    c0.4,1.3,1.6,2.1,2.9,2.1c0.2,0,0.5,0,0.7-0.1c0.8-0.2,1.4-0.7,1.8-1.4c0.4-0.7,0.4-1.6,0.2-2.3c-0.3-0.8-0.9-1.5-1.6-1.8    c-0.1-0.9-0.2-2-0.5-3.1l3.8,1.5c0.6,0.2,1,0.7,1.3,1.3c0.4,1.4,1.3,6.7,1.7,11c0,0.6,0.6,1.1,1.2,1.1c0,0,0.1,0,0.1,0    c0.6-0.1,1.1-0.6,1.1-1.3c-0.3-4.2-1.3-9.8-1.8-11.6c-0.5-1.3-1.5-2.3-2.6-2.8l-10-4.1c-0.5-0.2-1.1,0-1.4,0.4l-3.3,5    c-0.3,0.4-0.6,0.2-0.6,0.2c0,0,0-0.1-0.1-0.1l-3.2-5.1c-0.3-0.5-0.9-0.7-1.4-0.5l-3.2,1.3c-0.4-0.1-0.8,0.1-1,0.4l-5.7,2.3    c-1.2,0.4-2.2,1.5-2.7,2.8c-0.5,1.7-1.5,7.3-1.8,11.5c-0.1,0.6,0.4,1.2,1.1,1.3c0.6,0,1.2-0.4,1.3-1.1c0.3-4.3,1.3-9.6,1.7-10.9    c0.3-0.7,0.7-1.2,1.3-1.4l3.6-1.5c-0.1,0.6-0.3,1.2-0.3,1.7c-1.6,0.5-2.8,1.9-2.8,3.7v4.2c0,0.6,0.5,1.2,1.2,1.2h1.2    c0.6,0,1.2-0.5,1.2-1.2s-0.5-1.2-1.2-1.2l0-3c0-0.9,0.6-1.3,1.2-1.5c0.1,0,0.1,0.1,0.2,0.1c0,0,0.1,0,0.1,0c0.1,0,0.3,0,0.4-0.1    c0.4,0.1,0.7,0.3,0.8,0.4c0.4,0.5,0.5,0.8,0.5,1.2v3c-0.6,0-1.2,0.5-1.2,1.2s0.5,1.2,1.2,1.2h1.2c0.6,0,1.2-0.5,1.2-1.2v-4.2    C46.6,61.1,46.1,60.3,45.5,59.5C45.5,59.6,45.5,59.5,45.5,59.5z M62.7,62.9c-0.1,0.1-0.2,0.2-0.3,0.3c-0.2,0-0.3,0-0.5-0.1    c-0.2-0.1-0.3-0.2-0.3-0.3c0,0,0-0.1,0-0.1c-0.1-0.2,0-0.3,0-0.4c0.1-0.1,0.2-0.2,0.3-0.3c0,0,0,0,0,0c0.1,0,0.2,0.1,0.2,0.1    c0,0,0.1,0,0.1,0c0.2,0.1,0.3,0.3,0.4,0.5C62.8,62.6,62.7,62.8,62.7,62.9z"/><path class="st1" d="M81.1,72.6h-3.5c0.2-0.2,0.3-0.4,0.3-0.7V40.7c0-2.2-1.7-4.1-3.7-4.1H61.9c-0.4,0-0.7,0.2-0.9,0.5    c-0.8-3.9-3.9-6.1-8.7-6.1c-1.6,0-2.3,0.3-2.9,0.7c-0.2,0.1-0.2,0.1-0.4,0.1c-2.9,0-4.8,2-5.3,5.4c-0.2-0.3-0.5-0.5-1-0.5H30.6    c-2,0-3.7,1.8-3.7,4.1v31.2c0,0.3,0.1,0.5,0.3,0.7h-3.4c-0.6,0-1.2,0.5-1.2,1.2v4.8c0,1.8,1.6,3.8,3.7,3.8h52.2    c2.1,0,3.7-2.1,3.7-3.8v-4.8C82.2,73.1,81.7,72.6,81.1,72.6z M58.5,45c-0.3,0.2-0.6,0.6-0.7,1l-0.5,1.4c-0.4,0.6-1,1.4-1.9,2.2    c-0.3,0.3-0.5,0.5-0.7,0.6c-0.4,0.2-0.8,0.3-1.4,0.4h0c-0.1,0-0.2,0-0.4,0.1c-0.2,0.1-0.2,0.1-0.6,0.1c-0.1,0-0.2,0-0.2,0    c-0.2-0.1-0.4-0.2-0.7-0.2l-0.3,0c-0.5-0.1-0.7-0.1-1-0.3c-0.1-0.1-0.2-0.2-0.3-0.3c-0.1-0.1-0.3-0.3-0.6-0.5    c-0.8-0.8-1.4-1.6-1.7-2.1l-0.5-1.4c-0.1-0.4-0.4-0.7-0.5-0.9c-0.5-0.5-0.8-1.2-0.9-1.6c0.1,0,0.1,0,0.2,0    c0.4-0.1,0.8-0.3,1.1-0.6c0.7-0.8,1.3-1.7,1.8-2.9c0.1-0.2,0.2-0.4,0.2-0.6c1.5,1,4.6,2.5,8.3,2.2c0.2,0.5,0.4,0.8,0.5,1    c0,0.1,0.1,0.1,0.1,0.2c0.4,0.4,0.8,0.6,1.2,0.6C59.2,43.7,58.9,44.5,58.5,45z M49.1,34.1c0.8,0,1.2-0.3,1.6-0.5    c0.3-0.2,0.6-0.3,1.7-0.3c4.4,0,6.6,2,6.6,5.8c0,0.1,0,0.2,0,0.3c-0.3-0.2-0.7-0.4-1.1-0.3c-4.3,0.7-7.6-1.7-8.3-2.3    c-0.4-0.4-0.9-0.4-1.1-0.4c-0.7,0-1.3,0.5-1.4,1.2c-0.1,0.5-0.2,0.8-0.4,1.2c-0.2,0.5-0.4,0.9-0.6,1.3c0-0.4,0-0.8,0-1    C45.9,36.9,46.5,34.1,49.1,34.1z M29.2,71.9V40.7c0-1,0.6-1.7,1.4-1.7h12.2c0.3,0,0.6-0.1,0.8-0.4c0,0.2,0,0.4,0,0.6    c0,0.3,0,0.8,0.1,1.4c0,0.4,0,0.8,0.1,1.2c-0.2,0.3-0.3,0.5-0.3,0.9c-0.2,1.4,0.5,3,1.5,4l0.6,1.6c0,0.1,0.1,0.1,0.1,0.2    c0.4,0.7,1.2,1.8,2.3,2.8c0,0,0.1,0.1,0.1,0.1c0.1,0.1,0.2,0.2,0.3,0.3c0.2,0.2,0.4,0.4,0.6,0.5c0.7,0.6,1.5,0.7,2.1,0.8l0.2,0    c0.5,0.3,0.9,0.3,1.4,0.3c0.3,0,0.7,0,1.1-0.1c0,0,0.1,0,0.1,0c0.8-0.1,1.5-0.3,2.3-0.8c0.4-0.3,0.7-0.6,1.1-1c1-1,1.8-2,2.3-2.8    c0-0.1,0.1-0.1,0.1-0.2l0.6-1.6c0.9-0.9,1.7-2.6,1.5-4c-0.1-0.3-0.2-0.6-0.3-0.9c0-1.3,0-2.2,0.1-2.5c0-0.1,0-0.2,0-0.2    c0-0.2,0-0.3,0-0.5c0.2,0.2,0.4,0.3,0.7,0.3h12.2c0.8,0,1.4,0.8,1.4,1.7v31.2c0,0.3,0.1,0.5,0.3,0.7H58c0,0-0.1,0-0.1,0    c-0.1,0-0.2,0-0.2,0c-0.1,0-0.1,0.1-0.2,0.1c-0.1,0-0.1,0.1-0.2,0.1c-0.1,0.1-0.1,0.1-0.2,0.2c0,0-0.1,0.1-0.1,0.1l-1.5,2.5h-6.4    L48,73.8c0,0,0,0,0,0c0-0.6-0.5-1.2-1.2-1.2H29C29.1,72.4,29.2,72.2,29.2,71.9z M79.9,78.5c0,0.6-0.7,1.5-1.4,1.5H26.3    c-0.7,0-1.4-1-1.4-1.5v-3.6h21l1.5,2.5c0.2,0.3,0.6,0.6,1,0.6h7.7c0.4,0,0.8-0.2,1-0.6l1.5-2.5h21.3V78.5z"/></g></g></svg>