<svg width="528" height="985" fill="none" xmlns="http://www.w3.org/2000/svg">
  <g filter="url(#a)">
    <g clip-path="url(#b)">
      <rect x="54" y="54" width="420" height="877" rx="36" fill="#fff"/>
      <g clip-path="url(#c)">
        <path fill="#FCFCFC" d="M69 69h390v933H69z"/>
        <path d="M112 196v22h-4l-11-14v14h-5v-22h4l11 13v-13h5Zm22 13v2h-13l2 2 3 1h2l2-1 3 2c-2 2-4 3-7 3l-5-1a8 8 0 0 1-5-8l1-4 3-3 5-1 5 1 3 3 1 4Zm-9-5-3 1-1 3h8l-1-3-3-1Zm40-3-7 17h-4l-4-11-4 11h-5l-6-17h4l5 11 4-11h4l4 11 4-11h5Zm11 0h5v17h-5v-17Zm3-3h-3l-1-2 1-2 3-1 2 1 1 2-1 2h-2Zm17 3 5 1c2 2 2 4 2 6v10h-5v-9l-1-3-2-1-3 1-1 3v9h-5v-17h4v2l3-2h3Zm23 16-2 1h-2l-5-1-2-5v-7h-2v-4h2v-4h5v4h5v4h-5v7l1 2h4l1 3Zm19-8v2h-13l2 2 3 1h2l2-1 3 2c-2 2-4 3-7 3l-5-1a8 8 0 0 1-5-8l1-4 3-3 5-1 5 1 3 3 1 4Zm-9-5-3 1-1 3h8l-1-3-3-1Zm17-1 3-2h3v4h-1l-3 1-2 4v8h-5v-17h5v2Zm27-2-8 17h-5l-7-17h5l5 11 5-11h5Zm8 0 6 1c2 2 2 4 2 6v10h-4v-2l-6 2h-3l-2-2-1-3 2-4 5-1h4l-1-3-3-1a9 9 0 0 0-5 2l-1-3 3-2h4Zm0 14 2-1 1-1v-2h-3c-2 0-3 0-3 2l1 1 2 1Zm13-21h5v24h-5v-24Z" fill="#232323"/>
        <path d="M89 254h167v44H89v-44Z" fill="#F4AEA7"/>
        <path d="M151 269v13h-1l-8-9v9h-2v-13h2l7 10v-10h2Zm8 13-3-1a5 5 0 0 1-2-4v-2l2-2 3-1 2 1 2 2 1 2-1 3-2 1-2 1Zm0-1 1-1 2-1v-4l-2-1h-3l-1 1v4l1 1 2 1Zm9-7 1-1 2-1v2l-2 1-1 2v5h-2v-10h2v2Zm17-2 3 1 1 4v5h-2v-7l-2-1-2 1-1 2v5h-2v-7l-2-1-2 1-1 2v5h-2v-10h2v2l1-1 2-1 2 1 2 1 1-1 2-1Zm11 0 3 1 1 3v6h-2v-1l-1 1h-2l-2-1-1-2 1-2h5v-3h-2a5 5 0 0 0-3 1l-1-1 2-1 2-1Zm-1 9 2-1 1-1v-1h-2l-3 1 1 1 1 1Zm8-12h2v13h-2v-13Z" fill="#fff"/>
        <path d="M272 254h167v44H272v-44Z" fill="#E43424"/>
        <path d="M320 279h-7l-1 3h-2l5-13h2l6 13h-2l-1-3Zm-1-2-3-6-2 6h5Zm14-8v13h-1v-2l-2 2h-2l-2-1-2-1v-5l2-2a5 5 0 0 1 4 0l2 1v-5h1Zm-4 12 1-1 1-1 1-2-1-2-1-1h-3l-1 1-1 2 1 2 1 1 2 1Zm16-9-4 10h-2l-4-10h2l3 8 3-8h2Zm5 0 3 1 1 3v6h-2v-1l-1 1h-2l-2-1-1-2 1-2h5v-3h-2a5 5 0 0 0-3 1l-1-1 2-1 2-1Zm0 9 1-1 1-1v-1h-2l-3 1 1 1 2 1Zm12-9 3 1 1 4v5h-1v-5l-1-2-2-1-2 1-1 2v5h-2v-10h2v2l1-1 2-1Zm12 10-3-1a5 5 0 0 1-2-4v-2l2-2 3-1 2 1 2 1-2 1a3 3 0 0 0-2-1h-2l-1 1-1 2 1 2 1 1a3 3 0 0 0 3 0l1-1 2 1-2 2h-2Zm14-5v1h-7l1 2 2 1 3-2 1 2-2 1h-2l-3-1-2-1v-5l2-2 3-1 2 1 2 2v2Zm-4-3-3 1v2h6a3 3 0 0 0-3-3Zm16-5v13h-2v-2l-1 2h-2l-3-1-2-1v-5l2-2a5 5 0 0 1 5 0l1 1v-5h2Zm-5 12 1-1 2-1v-4l-2-1h-3l-1 1v4l1 1 2 1Z" fill="#fff"/>
        <path d="M113 326v8l-6-7v7h-1v-8h1l6 6v-6Zm5 2h2l1 2v4h-1v-1l-1 1h-3l-1-2 1-1 2-1h2l-1-1-1-1a3 3 0 0 0-2 1v-1h2Zm0 5h1l1-1v-1h-2l-2 1 1 1h1Zm13-5h2v6-4l-1-1-1-1-2 1v5h-1v-4l-1-1-1-1-2 1v5h-1v-6h1v1l1-1h3v1l1-1h2Zm10 3h-5l1 2h3v-1l1 1-1 1h-3l-1-1-1-2 1-2a3 3 0 0 1 2-1h2l1 1v2Zm-3-3-1 1-1 1h4v-1l-2-1Z" fill="#737373"/>
        <path d="M90 346h349v43H90v-43Z" fill="#fff"/>
        <path d="M90 346h349v43H90v-43Z" stroke="#E43424"/>
        <path d="M106 362h4l4 1 2 1v6l-2 2-4 1h-4v-11Zm4 10 3-1 1-1 1-3-1-2-1-1-3-1h-3v9h3Zm12-8 2 1 1 3v5h-1v-1l-1 1h-2l-2-1-1-1 1-2 2-1h3l-1-2h-1a4 4 0 0 0-3 1l-1-1 2-1 2-1Zm-1 8h2l1-2v-1h-3l-1 2v1h1Zm7-7h2v8h-2v-8Zm1-2h-1v-2h2v2h-1Zm4-2h1v12h-1v-12Zm12 4-4 9-2 2h-3l-1-1 1-1 2 1 1-1v-1l-3-8h1l3 6 3-6h2Zm13 4h-7l1 2 2 1 3-1 1 1-2 1h-4l-2-2v-4l2-2 2-1 2 1 2 2v2Zm-4-3h-2l-1 2h6a3 3 0 0 0-3-2Zm11 7-2-3-3 3h-1l3-4-3-4h2l2 3 2-3h2l-3 4 3 4h-2Zm11-4h-7l1 2 2 1 3-1 1 1-2 1h-4l-2-2v-4l2-2 2-1 2 1 2 2v2Zm-4-3h-2l-1 2h6a3 3 0 0 0-3-2Zm8 0 1-1 2-1v2l-2 1-1 2v4h-2v-8h2v1Zm8 7h-2a4 4 0 0 1-2-4v-2l2-2 2-1 2 1 2 1-1 1a3 3 0 0 0-3-1h-1l-1 1-1 2 1 1 1 1a3 3 0 0 0 3 0h2l-2 2h-2Zm6-8h1v8h-1v-8Zm1-2h-1v-2h1l1 1-1 1Zm6 10h-2l-2-1 1-1 1 1h2l2-1v-1h-1l-1-1h-2l-1-1v-3l3-1 2 1h1l-1 1h-3l-1 1v1h2l2 1h1v2l-1 1-2 1Zm13-4h-7l1 2 2 1 3-1v1l-1 1h-4l-2-2v-4l2-2 2-1 2 1 1 2 1 2Zm-4-3h-2l-1 2h6a3 3 0 0 0-3-2Z" fill="#161616"/>
        <path d="M216 356a1 1 0 0 1 2 0v23a1 1 0 0 1-2 0v-23Z" fill="#E43424"/>
        <path d="M113 416v8l-6-7v7h-1v-8h1l6 6v-6Zm9 2v6h-1v-1l-1 1h-1l-2-1-1-2v-3h1v5h3l1-2v-3h1Zm10 0h2v6-4l-1-1-1-1-2 1v5h-1v-4l-1-1-1-1-2 1v5h-1v-6h1v1l1-1h3v1l1-1h2Zm8 0h2l1 1v4l-1 1h-3l-1-1v1h-1v-9h1v4l1-1h1Zm0 5h1l1-1v-2l-1-1-1-1-1 1-1 1v2l1 1h1Zm10-2h-5l1 2h3l1-1v1l-1 1h-3l-1-1-1-2 1-2a3 3 0 0 1 2-1h2l1 1v2Zm-3-3-1 1-1 1h5l-1-1-2-1Zm6 1 1-1h1l-1 1-1 2v3h-1v-6h1v1Zm10 5h-2l-1-1-1-2 1-2 1-1h3l1 1 1 2-1 2-1 1h-1Zm0-1h1l1-1v-2l-1-1-1-1-2 1v1l-1 1 1 1v1h2Zm7-7h-1v2h2-2v6h-1v-6h-1 1v-2l2-1h1v1h-1Zm7 8h-1l-1-1-1-2 1-2 1-1h3l1 1h-2l-1-1-1 1-1 1v2a2 2 0 0 0 2 1h1l1-1 1 1-1 1h-2Zm10-6-3 7-1 1h-3v-1l2 1v-1h1v-1l-3-6h1l3 5 2-5h1Zm3 6h-1l-1-1-1-2 1-2 1-1h3l1 1h-2l-1-1-1 1-1 1v2a2 2 0 0 0 2 1h1l1-1 1 1-1 1h-2Zm4-9h1v9h-1v-9Zm9 6h-5l1 2h2l1-1 1 1-1 1h-3l-2-1v-4a3 3 0 0 1 3-1h2l1 1v2Zm-3-3-1 1-1 1h4v-1l-2-1Zm7 6h-2l-1-1h4v-2h-3v-1l-1-1 1-1h2a5 5 0 0 1 2 0v1l-2-1-1 1h-1v1h1l1 1h2v3h-2Z" fill="#737373"/>
        <path d="M90 436h349v43H90v-43Z" fill="#fff"/>
        <path d="M90 436h349v43H90v-43Z" stroke="#A2A2A2"/>
        <path d="M125 456h-17v2h18v-2h-1Zm138 0 4 1 1 3v1l-2 2h-4l-2-1v-1h2l2 1 2-1v-3h-6l1-6h6v1h-5v3h1Zm147-7h2v16h-2v-16Z" fill="#161616"/>
        <path d="M403 456h16v2h-16v-2Z" fill="#161616"/>
        <path d="M112 513v1h-6v-8h6-5v3h5v1h-5v3h5Zm6 1-2-3-2 3h-1l3-3-3-3h1l2 2 2-2h1l-2 3 2 3h-1Zm8-3h-6l1 2h3l1-1v1l-1 1h-3l-1-1v-4a3 3 0 0 1 3-1h1l1 1 1 2Zm-3-3-2 1-1 1h5l-1-1-1-1Zm5 1 1-1h2-1l-1 1-1 2v3h-1v-6h1v1Zm7 5h-2l-1-1-1-2 1-2 1-1h3l1 1h-1l-1-1-1 1-1 1-1 1 1 1a2 2 0 0 0 2 1h1l1-1v1l-1 1h-1Zm4-6h1v6h-1v-6Zm0-2a1 1 0 0 1 0-1h1v1h-1Zm5 8h-2l-1-1h4l1-1h-1v-1h-2l-1-1-1-1 1-1h2a5 5 0 0 1 2 0v1l-2-1-1 1h-1l1 1 1 1h2v3h-2Zm9-3h-5l1 2h3l1-1v1l-1 1h-3l-1-1-1-2 1-2a3 3 0 0 1 2-1h2l1 1v2Zm-3-3-1 1-1 1h5l-1-1-2-1Zm12 6h-3v-6h-2 2v-2 2h2-2v4l1 1a2 2 0 0 0 1 0l1 1Zm1-6h1v6h-1v-6Zm1-2h-1a1 1 0 0 1 0-1h1v1Zm10 2h2l1 2v4h-1v-5l-2-1-1 1-1 2v3h-1v-5l-2-1-1 1-1 2v3h-1v-6h1v1l1-1h3l1 1 1-1h1Zm11 3h-6l1 2h3l1-1v1l-1 1h-3l-1-1v-4a3 3 0 0 1 3-1h1l1 1 1 2Zm-3-3-2 1-1 1h5l-1-1-1-1Z" fill="#737373"/>
        <path d="M90 526h349v43H90v-43Z" fill="#fff"/>
        <path d="M90 526h349v43H90v-43Z" stroke="#A2A2A2"/>
        <path d="M125 546h-17v2h18v-2h-1Zm127 7-2-1-2-2v-6l2-2h5l1 2 1 3-1 3-1 2-3 1Zm0-1 2-1 1-4-1-3-2-1-2 1-1 3 1 4 2 1Zm7-5v-1h-1l1-1v-1l1 1v1l-1 1Zm0 6-1-1 1-1h1v2h-1Zm7-6 3 1 1 2-1 1-1 2h-5l-2-1 1-1h2l1 1 2-1 1-1-1-2h-3v-1l3-4h-5v-1h7v1l-3 4Zm10 6-3-1-1-2-1-3 1-3 1-2h5l2 2v6l-2 2-2 1Zm0-1 2-1 1-4-1-3-2-1-2 1-1 3 1 4 2 1Zm134-13h2v16h-2v-16Z" fill="#161616"/>
        <path d="M403 546h16v2h-16v-2Z" fill="#161616"/>
        <path d="m112 604-2-3h-3v3h-1v-8h6l1 2-1 2-1 1 2 3h-1Zm-3-3 2-1 1-2-1-1-2-1h-2v5h2Zm11 0h-5l1 2h3v-1l1 1-1 1h-3l-1-1-1-2 1-2a3 3 0 0 1 2-1h2l1 1v2Zm-3-3-1 1-1 1h5l-1-1-2-1Zm7 6h-2l-1-1h4l1-1h-1v-1h-2l-1-1-1-1 1-1h2a5 5 0 0 1 2 0v1l-2-1-1 1h-1l1 1 1 1h2v3h-2Zm7 0h-2l-1-2v-4h-1 1v-2h1v2h2-2v5h1a2 2 0 0 0 1 0v1Zm8 0h-2l-1-2v-4h-1 1v-2h1v2h2-2v5h1a2 2 0 0 0 1 0v1Zm2-6h1v6h-1v-6Zm0-2a1 1 0 0 1 0-1h1v1h-1Zm11 2h2l1 2v4h-1v-4l-1-1-1-1-2 1v5h-1v-4l-1-1-1-1-1 1-1 2v3h-1v-6h1v1l1-1h3v1l1-1h2Zm10 3h-5l1 2h3v-1l1 1-1 1h-3l-1-1-1-2 1-2a3 3 0 0 1 2-1h2l1 1v2Zm-3-3-1 1-1 1h5l-1-1-2-1Z" fill="#737373"/>
        <path d="M90 616h349v43H90v-43Z" fill="#fff"/>
        <path d="M90 616h349v43H90v-43Z" stroke="#A2A2A2"/>
        <path d="M125 636h-17v2h18v-2h-1Zm128-4v11h-2v-10h-2v-1h4Zm3 5v-1h-1l1-1v-1l1 1v1l-1 1Zm0 6-1-1 1-1h1v2h-1Zm7 0-2-1-2-2v-6l2-2h5l1 2 1 3-1 3-1 2-3 1Zm0-1 3-1v-7l-3-1-2 1-1 3 1 4 2 1Zm11 1-2-1-2-2v-6l2-2h4l2 2 1 3-1 3-2 2-2 1Zm0-1 2-1 1-4-1-3-2-1-2 1-1 3 1 4 2 1Zm136-13h2v16h-2v-16Z" fill="#161616"/>
        <path d="M403 636h16v2h-16v-2Z" fill="#161616"/>
        <path d="M112 692h-5l-1 2h-1l4-8h1l4 8h-1l-1-2Zm-1-1-2-4-2 4h4Zm4-6h1v9h-1v-9Zm9 6h-6l1 2h3l1-1v1l-1 1h-3l-1-1-1-2 1-2a3 3 0 0 1 2-1h2l1 1 1 2Zm-4-3-1 1-1 1h5l-1-1-2-1Zm6 1 1-1h1l-1 1-1 2v3h-1v-6h1v1Zm8 5h-3l-1-2v-4h-1 1v-2h1v2h2-2v4l1 1a2 2 0 0 0 1 0l1 1Z" fill="#737373"/>
        <path d="M90 706h349v43H90v-43Z" fill="#fff"/>
        <path d="M90 706h349v43H90v-43Z" stroke="#A2A2A2"/>
        <path d="M109 723h-4v-1h9v1h-4v10h-1v-10Zm14 6h-7l1 2 2 1 2-1 1 1-1 1h-5l-1-2-1-2 1-2 1-2 2-1 3 1 1 2 1 2Zm-5-3h-1l-1 2h5a3 3 0 0 0-3-2Zm12 7-3-3-2 3h-2l4-4-4-4h2l3 3 2-3h2l-4 4 4 4h-2Zm8 0h-2l-2-1v-6h-2v-1h2v-2h1v2h3v1h-3v5l1 1 2-1v2Zm11 0h-2l-2-1v-6h-2v-1h2v-2h1v2h2v1h-2v5l1 1 2-1v2Zm5 0h-2a4 4 0 0 1-2-4v-2l2-2 2-1 3 1 1 2 1 2-1 2-1 2h-3Zm0-1 2-1 1-1v-3l-1-1h-3l-1 1-1 2 1 1 1 1 1 1Zm14 1h-2l-2-1 1-1 1 1h2l2-1-1-1-1-1h-2l-1-1-1-1 1-2 3-1 2 1h1l-1 1h-4v2h2l2 1h1v2l-1 1-2 1Zm10-9 2 1 1 2 1 2-1 2-1 2a4 4 0 0 1-4 0l-1-1v4h-2v-11h2v1l1-1 2-1Zm-1 8 2-1 1-1v-3l-1-1h-2a3 3 0 0 0-2 1v3a3 3 0 0 0 2 2Zm15-3h-7l1 2 2 1 2-1 1 1-1 1h-5l-1-2-1-2 1-2 1-2 2-1 3 1 1 2 1 2Zm-5-3h-1l-1 2h5a3 3 0 0 0-3-2Zm14 3h-6l1 2 2 1 2-1 1 1-2 1h-4l-1-2-1-2 1-2 1-2 2-1 2 1 2 2v2Zm-4-3h-2v2h5a3 3 0 0 0-3-2Zm10 7h-2a4 4 0 0 1-2-4v-2l2-2 2-1 2 1 2 1-1 1a3 3 0 0 0-3-1h-1l-1 1-1 2 1 1 1 1a3 3 0 0 0 3 0h2l-2 2h-2Zm10-9 3 1 1 3v5h-2v-7h-2l-2 1-1 2v4h-1v-12h1v5l1-1 2-1Zm201 2-11-8v2l9 7-9 7v2l11-8a1 1 0 0 0 0-2Z" fill="#161616"/>
        <path d="M90 762h349v43H90v-43Z" fill="#fff"/>
        <path d="M90 762h349v43H90v-43Z" stroke="#A2A2A2"/>
        <path d="M110 789h-3l-1-1v-2l2 1 2 1 2-1 1-1-1-1h-1l-1-1h-2l-2-1v-4l2-1h4l2 1-1 1-1-1h-2l-2 1-1 1 1 1h1l1 1h2l2 1v4l-2 1h-2Zm10 0h-2a4 4 0 0 1-2-4v-2l2-2 2-1 2 1 2 2v4l-2 2h-2Zm0-1 1-1 2-1v-3l-2-1h-2l-1 1-1 2 1 1 1 1 1 1Zm14-7v8h-1v-1l-1 1h-2l-3-1-1-3v-4h2v4l1 2 1 1 2-1 1-2v-4h1Zm8-1 2 1 1 3v5h-1v-5l-1-2h-1l-2 1-1 2v4h-2v-8h2v1l1-1 2-1Zm14-3v12h-1v-1l-1 1h-4l-2-2v-4l2-2a4 4 0 0 1 3 0l2 1v-5h1Zm-4 11 1-1 1-1 1-1-1-2-1-1h-3l-1 1v3l1 1 2 1Zm266-6-11-8v2l9 7-9 7v2l11-8a1 1 0 0 0 0-2Z" fill="#161616"/>
        <path fill="#fff" d="M69 104h390v55H69z"/>
        <path d="M106 125v-2l-11 8a1 1 0 0 0 0 1l11 8v-2l-9-6 9-7Z" fill="#161616"/>
        <path d="m406 138-2-1-2-1v-1l2 1h4l1-1-1-1v-1h-2l-2-1-1-1-1-2 1-1 1-1 2-1h2l2 1-1 1h-5v2l1 1h2l2 1 1 1v3l-1 1-3 1Zm10-9 2 1 1 2v6h-1v-2l-1 1-2 1-2-1-1-2 1-2h5v-1l-1-1-2-1a4 4 0 0 0-2 1l-1-1 2-1h2Zm-1 7h2l1-1v-1h-3l-2 1 1 1h1Zm14-7-3 9h-2l-4-9h2l3 7 3-7h1Zm9 4v1h-7l1 2h2l3-1 1 1-2 1-2 1-2-1-2-1v-5l2-1 2-1 2 1 2 1v2Zm-4-3-2 1-1 2h6a3 3 0 0 0-3-3Z" fill="#000"/>
        <path fill="#fff" d="M69 69h390v35H69z"/>
        <path d="M94 81c1 0 3 0 3 2l2 4-1 3-2 2-3 1h-2l-1-1 1-1 2 1 3-1 1-4-1 1h-5l-1-1-1-2 1-2 2-2h2Zm0 6h1l1-1 1-1-1-2h-1l-1-1-2 1-1 2 1 1 2 1Zm7-1h-1v-2h2v2h-1Zm0 7h-1v-2h2v2h-1Zm12-3h-2v3h-2v-3h-6v-1l6-8h2l-6 8h4v-3h2v3h2v1Zm4-9v12h-2V83h-3v-2h5Zm6 4v2h5v5c0 2 2 2 3 1l5-11c0-2-1-3-2-2l-11 5Zm2 1 9-4-4 8v-3l-1-1h-4Z" fill="#000"/>
        <rect x="379.4" y="80.5" width="3.2" height="12" rx="1" fill="#000"/>
        <rect x="374.1" y="82.9" width="3.2" height="9.6" rx="1" fill="#000"/>
        <rect x="368.8" y="85.5" width="3.2" height="7" rx="1" fill="#000"/>
        <rect x="363.4" y="87.9" width="3.2" height="4.6" rx="1" fill="#000"/>
        <path d="M397 89h2v1l-2 2-2-2v-1h2Zm0-4 5 1v1l-1 1h-1a5 5 0 0 0-6 0h-1l-1-1v-1l5-1Z" fill="#000"/>
        <path d="M397 81c3 0 5 1 8 3l-1 2h-1a9 9 0 0 0-12 0h-1l-1-2c3-2 5-3 8-3Z" fill="#000"/>
        <rect x="413" y="82" width="21" height="9" rx="1.3" fill="#000"/>
        <path opacity=".4" fill-rule="evenodd" clip-rule="evenodd" d="M417 81h17l1 1v9l-1 1h-21l-1-1v-9l1-1h4Zm-6 5v-4l2-2h21l2 2v9l-2 2h-21l-2-2v-5Zm26 3 2-2c0-2-1-2-2-2v4Z" fill="#000"/>
      </g>
    </g>
  </g>
  <defs>
    <clipPath id="b">
      <rect x="54" y="54" width="420" height="877" rx="36" fill="#fff"/>
    </clipPath>
    <clipPath id="c">
      <path fill="#fff" transform="translate(69 69)" d="M0 0h390v933H0z"/>
    </clipPath>
    <filter id="a" x="0" y="0" width="528" height="985" filterUnits="userSpaceOnUse" color-interpolation-filters="sRGB">
      <feFlood flood-opacity="0" result="BackgroundImageFix"/>
      <feColorMatrix in="SourceAlpha" values="0 0 0 0 0 0 0 0 0 0 0 0 0 0 0 0 0 0 127 0" result="hardAlpha"/>
      <feMorphology radius="10" operator="dilate" in="SourceAlpha" result="effect1_dropShadow_592_1733"/>
      <feOffset/>
      <feGaussianBlur stdDeviation="22"/>
      <feComposite in2="hardAlpha" operator="out"/>
      <feColorMatrix values="0 0 0 0 0 0 0 0 0 0 0 0 0 0 0 0 0 0 0.1 0"/>
      <feBlend in2="BackgroundImageFix" result="effect1_dropShadow_592_1733"/>
      <feBlend in="SourceGraphic" in2="effect1_dropShadow_592_1733" result="shape"/>
    </filter>
  </defs>
</svg>
